<svg width="20" height="20" viewBox="0 0 20 20" fill="none" xmlns="http://www.w3.org/2000/svg">
<rect x="0.5" y="0.5" width="19" height="19" rx="9.5" fill="#BEBEBE"/>
<path d="M6.0415 14.4531H13.9582M6.86583 10.5873C6.65486 10.7988 6.53635 11.0852 6.5363 11.3839V12.9687H8.13101C8.42986 12.9687 8.71635 12.85 8.92762 12.6382L13.6281 7.93523C13.839 7.72376 13.9575 7.43728 13.9575 7.13862C13.9575 6.83995 13.839 6.55348 13.6281 6.342L13.164 5.8769C13.0594 5.77218 12.9351 5.68911 12.7983 5.63246C12.6615 5.5758 12.5149 5.54666 12.3668 5.54671C12.2188 5.54675 12.0722 5.57598 11.9354 5.63272C11.7986 5.68947 11.6744 5.77261 11.5698 5.87739L6.86583 10.5873Z" stroke="#1F1E1E" stroke-width="0.59375" stroke-linecap="round" stroke-linejoin="round"/>
</svg>
