<svg width="106" height="108" viewBox="0 0 106 108" fill="none" xmlns="http://www.w3.org/2000/svg">
<path d="M84.5893 34.0252L42.4699 76.1447L21.4102 55.085" stroke="#38A238" strokeWidth="1.2" stroke-linecap="round" stroke-linejoin="round"/>
<path d="M105.7 53.9141C105.7 83.0195 82.1052 106.614 52.9998 106.614C23.8944 106.614 0.299805 83.0195 0.299805 53.9141C0.299805 24.8086 23.8944 1.21405 52.9998 1.21405C82.1052 1.21405 105.7 24.8086 105.7 53.9141ZM1.98621 53.9141C1.98621 82.0881 24.8258 104.928 52.9998 104.928C81.1738 104.928 104.013 82.0881 104.013 53.9141C104.013 25.74 81.1738 2.90045 52.9998 2.90045C24.8258 2.90045 1.98621 25.74 1.98621 53.9141Z" fill="#38A238"/>
</svg>
