<svg width="99" height="31" viewBox="0 0 99 31" fill="none" xmlns="http://www.w3.org/2000/svg">
<path fill-rule="evenodd" clip-rule="evenodd" d="M0.694798 23.2299L2.71365 23.211C2.98513 23.2034 3.26547 23.2016 3.55 23.2031H3.55028H3.55H3.55028C4.31906 23.2071 5.1183 23.2348 5.85475 23.2348H79.658C80.6935 23.2348 85.6643 23.3338 86.2673 23.1545C86.869 22.9756 89.3021 20.6146 89.9104 20.0325C61.0921 20.0325 32.2736 20.0325 3.45525 20.0325V3.51185C32.2979 3.51185 61.1405 3.51185 89.9832 3.51185C90.8117 3.51185 95.3053 3.36237 95.7063 3.6058C95.9116 3.81135 95.8001 13.7241 95.8001 14.7925L98.9995 11.9448V0.30957H5.12763C4.23308 0.309848 3.33934 0.338255 2.44644 0.30957H0.726895C0.420804 0.386579 0.258613 0.549663 0.183152 0.827804V2.48665C0.238161 4.04327 0.183152 7.4734 0.183152 8.82466L0.206818 20.5182C0.208048 20.7139 0.197296 20.911 0.183152 21.1079V22.6756C0.272539 22.9774 0.456412 23.1438 0.694798 23.2299Z" fill="#B72A30"/>
<path fill-rule="evenodd" clip-rule="evenodd" d="M21.0875 5.46986L21.051 17.6308C21.7058 17.6308 24.2049 17.7282 24.6395 17.583C24.7706 17.1898 24.6899 15.0755 24.6867 14.5008C24.6837 13.9596 24.7608 13.5434 24.76 12.973C24.7593 12.4393 24.76 11.9056 24.76 11.3719L27.748 14.9292L28.595 14.9361L31.4248 11.497L31.4518 13.844C31.5587 15.1656 31.5096 15.6457 31.5195 16.9058C31.5222 17.2402 31.5889 17.3431 31.595 17.6308H35.1579C35.1579 16.2388 35.264 5.87647 35.1045 5.45748C34.8836 5.37319 32.5013 5.35375 32.2849 5.43961C31.8106 5.62768 28.5023 10.0432 28.1251 9.97751C27.9081 9.9397 25.7541 7.25784 25.3974 6.87671C25.1134 6.57335 24.282 5.46767 23.9555 5.40868C23.6285 5.3496 21.3346 5.37313 21.0875 5.46986Z" fill="#B82B31"/>
<path fill-rule="evenodd" clip-rule="evenodd" d="M47.3009 10.8625V7.58738C48.5333 7.58738 51.3516 7.23311 51.1986 9.16563C51.0443 11.1161 48.8683 10.8625 47.3009 10.8625ZM43.8107 17.7764C44.6773 17.7764 46.4928 17.8142 47.2555 17.7493C47.3816 16.9819 47.3031 14.1619 47.3009 13.1913L48.8108 13.197L52.3855 17.7769L56.608 17.7768C56.0094 16.8603 55.0975 15.9697 54.4267 15.0835C54.0434 14.577 52.3978 12.7605 52.2692 12.4147C53.1633 11.6298 54.7903 11.4977 54.7903 8.46073C54.7903 6.19222 52.375 5.25851 50.4275 5.25851H43.8107V17.7764Z" fill="#B82B31"/>
<path fill-rule="evenodd" clip-rule="evenodd" d="M60.0983 11.663C60.072 11.5218 60.2244 10.69 60.2717 10.5265C61.0258 7.92059 65.3273 8.149 65.4111 11.5166C65.4495 13.0577 64.4557 14.4097 62.8615 14.4342C62.1185 14.4457 61.44 14.1338 60.9155 13.6106C60.3707 13.0671 60.2323 12.3818 60.0983 11.663ZM61.7706 5.40406C59.9169 5.76806 58.9874 6.14735 57.7546 7.64327C55.8937 9.90104 55.9711 14.3659 58.8119 16.6623C60.0932 17.6979 62.3042 18.0655 63.8921 17.7891C67.4579 17.1685 69.5474 14.149 69.038 10.5753C68.5403 7.08344 65.2633 4.71832 61.7706 5.40406Z" fill="#B82B31"/>
<path fill-rule="evenodd" clip-rule="evenodd" d="M13.126 8.89739C13.3071 8.97027 13.1846 8.87374 13.2803 9.03409L13.5357 9.87018C13.8244 10.8517 14.2923 12.1407 14.5076 13.0458H11.9626C11.9727 12.5635 12.3872 11.5129 12.5293 10.993C12.6621 10.5072 13.1173 9.30687 13.126 8.89739ZM6.58187 17.7764H10.4356L11.0791 15.7352L15.3073 15.7386L15.9424 17.7823L19.961 17.7764L15.3801 5.47686H11.1627L7.70005 14.6744C7.52264 15.1797 7.29647 15.6899 7.11817 16.2026C6.99018 16.5705 6.61165 17.4228 6.58187 17.7764Z" fill="#B82B31"/>
<path fill-rule="evenodd" clip-rule="evenodd" d="M70.9729 5.54157C70.875 5.87764 70.8792 17.2515 70.9769 17.5864C71.3824 17.7048 73.8084 17.6308 74.4227 17.6308V13.9919C75.2091 13.9919 79.1863 14.0857 79.6102 13.9441C79.744 13.5428 79.658 11.4471 79.658 10.8625H74.4227V8.67906C75.291 8.67906 80.2136 8.76973 80.6282 8.63127C80.7636 8.22512 80.676 6.07149 80.676 5.47686C79.5064 5.47686 71.3807 5.37537 70.9729 5.54157Z" fill="#B82B31"/>
<path fill-rule="evenodd" clip-rule="evenodd" d="M82.3484 17.1941L82.3728 17.5803C83.242 17.7067 84.887 17.6337 85.8386 17.6308V13.9919H91.0012V10.8625H85.8386V8.67906H92.0191V5.47686H82.3484V17.1941Z" fill="#B82B31"/>
<path fill-rule="evenodd" clip-rule="evenodd" d="M37.7993 17.6071C38.1503 17.6701 41.0806 17.6704 41.3663 17.5859C41.466 17.2483 41.466 5.7866 41.3663 5.44899C41.0155 5.34518 39.1365 5.41098 38.5019 5.4033C37.5367 5.39174 37.7755 5.24016 37.7755 7.66019C37.7755 9.19207 37.7006 17.0567 37.7993 17.6071Z" fill="#B82B31"/>
<path fill-rule="evenodd" clip-rule="evenodd" d="M95.8256 16.6382L95.7997 20.0325C94.9276 20.0325 94.055 20.0326 93.1825 20.0325C91.5456 20.0325 92.304 19.9356 91.2618 20.7301L88.5289 23.2348H98.9995V13.8463L95.8256 16.6382Z" fill="white"/>
<path fill-rule="evenodd" clip-rule="evenodd" d="M0.173828 0.30957H2.08189V23.2207H0.173828V0.30957Z" fill="#B72A30"/>
<path d="M26.1693 24.649C25.6929 23.9888 25.0739 23.6587 24.3124 23.6587C23.6972 23.6587 23.1721 23.8875 22.7407 24.3414C22.3168 24.7878 22.1067 25.3205 22.1067 25.9394C22.1067 26.5809 22.3131 27.1323 22.7219 27.5862C23.1458 28.0551 23.6785 28.2877 24.3124 28.2877C25.0739 28.2877 25.6779 27.9726 26.1318 27.3461H26.7695C26.5181 27.8113 26.1843 28.1714 25.7641 28.4265C25.3478 28.6778 24.8751 28.8053 24.35 28.8053C23.5359 28.8053 22.8607 28.5278 22.3281 27.9763C21.7991 27.4324 21.5366 26.7497 21.5366 25.9319C21.5366 25.1554 21.8217 24.484 22.3918 23.9176C22.9245 23.3886 23.566 23.1261 24.3199 23.1261C24.8639 23.1261 25.3553 23.2573 25.7867 23.5237C26.218 23.79 26.5632 24.1651 26.8145 24.649H26.1693Z" fill="white"/>
<path d="M28.0374 28.6966H27.5009V24.5703H27.9999V25.0467C28.2474 24.6978 28.57 24.5215 28.9639 24.5102L28.9677 25.0842C28.6188 25.1179 28.375 25.2267 28.2324 25.4105C28.1011 25.5793 28.0374 25.8457 28.0374 26.2058V28.6966Z" fill="white"/>
<path d="M33.4766 26.7985H29.7517C29.7854 27.2449 29.943 27.605 30.2318 27.8863C30.5207 28.1676 30.8883 28.3064 31.3347 28.3064C31.9874 28.3064 32.4563 28.0026 32.7451 27.3911H33.3453C32.9514 28.3402 32.2875 28.8129 31.3497 28.8129C30.7457 28.8129 30.2393 28.599 29.8229 28.1751C29.4103 27.7513 29.204 27.2336 29.204 26.6297C29.204 25.9957 29.4065 25.478 29.8117 25.0692C30.2206 24.6603 30.7382 24.4577 31.3722 24.4577C32.0211 24.4577 32.5388 24.6828 32.9252 25.1329C33.2928 25.5606 33.4766 26.1045 33.4766 26.761V26.7985ZM32.8914 26.3521C32.6926 25.4218 32.1599 24.9566 31.2934 24.9566C30.8808 24.9566 30.5357 25.0879 30.2581 25.3505C29.9917 25.6018 29.8267 25.9357 29.7667 26.3521H32.8914Z" fill="white"/>
<path d="M37.5729 26.6072C37.5729 26.1795 37.4228 25.8006 37.1227 25.4743C36.8114 25.1404 36.4475 24.9716 36.0236 24.9716C35.5622 24.9716 35.1759 25.1404 34.872 25.4818C34.5757 25.8082 34.4256 26.2058 34.4256 26.6747C34.4256 27.1286 34.5757 27.5149 34.8795 27.8338C35.1834 28.1526 35.5622 28.3139 36.0086 28.3139C36.455 28.3139 36.8301 28.1376 37.134 27.7888C37.4266 27.4512 37.5729 27.0573 37.5729 26.6072ZM37.5729 28.0439C37.2203 28.5503 36.6951 28.8053 35.9936 28.8053C35.3822 28.8053 34.8795 28.599 34.4781 28.1864C34.0768 27.7738 33.878 27.2636 33.878 26.6522C33.878 26.0295 34.0843 25.5118 34.4932 25.0992C34.902 24.6865 35.4197 24.4802 36.0386 24.4802C36.7026 24.4802 37.2128 24.7316 37.5729 25.2305V24.5703H38.0905V28.6966H37.5729V28.0439Z" fill="white"/>
<path d="M39.2872 28.6966V25.1029H38.5032V24.5703H39.2872V23.2348H39.8161V24.5703H40.6001V25.1029H39.8161V28.6966H39.2872Z" fill="white"/>
<path d="M41.5641 24.0864H41.0352V23.2348H41.5641V24.0864ZM41.0352 28.6966V24.5703H41.5641V28.6966H41.0352Z" fill="white"/>
<path d="M44.0362 28.6966H43.5523L41.9393 24.5703H42.4982L43.8186 27.8976L45.1503 24.5703H45.7242L44.0362 28.6966Z" fill="white"/>
<path d="M50.1393 26.7985H46.4144C46.4482 27.2449 46.6057 27.605 46.8946 27.8863C47.1834 28.1676 47.551 28.3064 47.9974 28.3064C48.6501 28.3064 49.119 28.0026 49.4079 27.3911H50.008C49.6142 28.3402 48.9502 28.8129 48.0124 28.8129C47.4085 28.8129 46.9021 28.599 46.4857 28.1751C46.0731 27.7513 45.8667 27.2336 45.8667 26.6297C45.8667 25.9957 46.0693 25.478 46.4744 25.0692C46.8833 24.6603 47.401 24.4577 48.0349 24.4577C48.6839 24.4577 49.2015 24.6828 49.5879 25.1329C49.9555 25.5606 50.1393 26.1045 50.1393 26.761V26.7985ZM49.5542 26.3521C49.3553 25.4218 48.8227 24.9566 47.9562 24.9566C47.5435 24.9566 47.1984 25.0879 46.9208 25.3505C46.6545 25.6018 46.4894 25.9357 46.4294 26.3521H49.5542Z" fill="white"/>
<path d="M52.8702 28.6966H52.3038L54.4232 23.2348H55.0684L57.1803 28.6966H56.6064L55.9537 26.9823H53.5229L52.8702 28.6966ZM55.7661 26.4909L54.7308 23.7487L53.7105 26.4909H55.7661Z" fill="white"/>
<path d="M58.2156 29.0342C58.3844 29.5406 58.7858 29.7957 59.416 29.7957C59.9074 29.7957 60.2938 29.6306 60.5751 29.2968C60.8415 28.9854 60.9728 28.5765 60.9728 28.0739V27.9651C60.5714 28.5165 60.0612 28.7903 59.446 28.7903C58.8233 28.7903 58.3057 28.584 57.8968 28.1751C57.4879 27.7625 57.2854 27.2449 57.2854 26.6222C57.2854 26.0145 57.4842 25.5043 57.8855 25.0917C58.2869 24.679 58.7933 24.4727 59.3973 24.4727C60.0687 24.4727 60.5939 24.7316 60.9728 25.2455V24.5703H61.4904V28.0138C61.4904 28.7003 61.3254 29.2442 60.9953 29.6494C60.6352 30.0883 60.1212 30.3096 59.4535 30.3096C59.0109 30.3096 58.6245 30.2045 58.2944 29.9945C57.9343 29.7656 57.7017 29.443 57.6004 29.0342H58.2156ZM57.848 26.5997C57.848 27.061 57.9906 27.4587 58.2794 27.785C58.5833 28.1264 58.9621 28.2989 59.416 28.2989C59.8399 28.2989 60.2075 28.1301 60.5151 27.7925C60.8152 27.4662 60.9653 27.0873 60.9653 26.6597C60.9653 26.2095 60.8227 25.8157 60.5339 25.4818C60.23 25.1329 59.8587 24.9566 59.416 24.9566C58.9696 24.9566 58.5945 25.1179 58.2944 25.4405C57.9981 25.7631 57.848 26.1495 57.848 26.5997Z" fill="white"/>
<path d="M66.3595 26.7985H62.6345C62.6683 27.2449 62.8258 27.605 63.1147 27.8863C63.4035 28.1676 63.7711 28.3064 64.2175 28.3064C64.8702 28.3064 65.3391 28.0026 65.628 27.3911H66.2282C65.8343 28.3402 65.1703 28.8129 64.2325 28.8129C63.6286 28.8129 63.1222 28.599 62.7058 28.1751C62.2932 27.7513 62.0869 27.2336 62.0869 26.6297C62.0869 25.9957 62.2894 25.478 62.6946 25.0692C63.1034 24.6603 63.6211 24.4577 64.2551 24.4577C64.904 24.4577 65.4217 24.6828 65.808 25.1329C66.1757 25.5606 66.3595 26.1045 66.3595 26.761V26.7985ZM65.7743 26.3521C65.5755 25.4218 65.0428 24.9566 64.1763 24.9566C63.7636 24.9566 63.4185 25.0879 63.1409 25.3505C62.8746 25.6018 62.7096 25.9357 62.6495 26.3521H65.7743Z" fill="white"/>
<path d="M66.9709 24.5703H67.4848V25.0392C67.8037 24.6715 68.2351 24.4877 68.7827 24.4877C69.4129 24.4877 69.8706 24.7053 70.1519 25.1404C70.3282 25.4143 70.4182 25.8794 70.4182 26.5396V28.6966H69.8968V26.3858C69.8968 25.9319 69.8181 25.5943 69.6568 25.373C69.4692 25.1217 69.1579 24.9941 68.7227 24.9941C68.2313 24.9941 67.8787 25.1817 67.6611 25.5531C67.5448 25.7556 67.4848 26.1345 67.4848 26.6897V28.6966H66.9709V24.5703Z" fill="white"/>
<path d="M74.5633 25.8382C74.2445 25.2492 73.7681 24.9566 73.1341 24.9566C72.6877 24.9566 72.3163 25.1254 72.0238 25.4668C71.7462 25.7931 71.6074 26.1833 71.6074 26.6372C71.6074 27.0986 71.7499 27.4887 72.0312 27.8075C72.3276 28.1414 72.7027 28.3064 73.1566 28.3064C73.8281 28.3064 74.297 28.0063 74.5633 27.4062H75.1485C74.9872 27.8525 74.7396 28.1977 74.3982 28.4452C74.0569 28.6891 73.6518 28.8129 73.1829 28.8129C72.5827 28.8129 72.0763 28.6028 71.6674 28.1826C71.2585 27.7588 71.0522 27.2486 71.0522 26.6447C71.0522 26.037 71.2585 25.5193 71.6674 25.0954C72.08 24.6715 72.5902 24.4577 73.1979 24.4577C73.6518 24.4577 74.0531 24.5815 74.3945 24.8291C74.7284 25.0692 74.9797 25.4068 75.1485 25.8382H74.5633Z" fill="white"/>
<path d="M75.3736 24.5703H75.9812L77.2567 27.9201L78.5921 24.5703H79.2073L76.9791 30.032H76.4126L76.9641 28.6891L75.3736 24.5703Z" fill="white"/>
</svg>
