<svg width="310" height="72" viewBox="0 0 310 72" fill="none" xmlns="http://www.w3.org/2000/svg">
<path d="M37.9232 5.11048C38.3701 6.00701 38.8185 6.90354 39.267 7.80016L71.951 69.851H66.1796L36.1159 14.2047L6.87477 69.851H0.232742L32.965 7.79778C33.413 6.90125 33.861 6.00464 34.3092 5.1081L36.1159 1.43748L37.9232 5.11048Z" fill="white"/>
<path d="M37.9232 24.4478C38.3701 25.3443 38.8185 26.2409 39.267 27.1374L61.3828 69.851H54.8119L36.1159 33.542L17.293 69.851H10.8066L32.965 27.1352C33.413 26.2385 33.861 25.342 34.3092 24.4455L36.1159 20.7748L37.9232 24.4478Z" fill="white"/>
<path d="M37.9232 43.9551C38.3701 44.8517 38.8185 45.7482 39.267 46.6448L50.8534 69.851H44.3816L36.1159 53.0494L27.8502 69.851H21.378L32.965 46.6424C33.413 45.7458 33.861 44.8493 34.3092 43.9527L36.1159 40.2821L37.9232 43.9551Z" fill="white"/>
<path d="M95.3459 47.2459V46.3866C96.2842 46.2152 96.827 46.0761 96.9742 45.9679C97.0452 45.9189 97.1027 45.8519 97.1413 45.7759C97.1799 45.6986 97.1985 45.6123 97.1953 45.526C97.1918 45.3998 97.1683 45.2735 97.1255 45.1537C97.0015 44.8277 96.5986 43.8499 95.9172 42.2215C94.8257 42.1983 93.9159 42.1868 93.1879 42.1868C92.5926 42.1868 91.5979 42.1983 90.2041 42.2215C89.333 44.2545 88.898 45.3675 88.8988 45.5608C88.8928 45.6394 88.9068 45.7193 88.9393 45.7914C88.9717 45.8635 89.0219 45.9267 89.085 45.9743C89.209 46.0606 89.7599 46.1985 90.7378 46.3866V47.2459C89.7599 47.1608 88.8247 47.117 87.9322 47.117C86.9707 47.117 85.9933 47.1608 85 47.2459V46.3866C85.6978 46.2397 86.179 46.0735 86.4435 45.8867C86.6442 45.7373 86.8107 45.5479 86.932 45.3289C87.2344 44.8419 88.139 42.9546 89.6457 39.6682C90.6003 37.5889 91.9641 34.5111 93.7372 30.435H94.6675C95.3903 32.2527 96.8838 35.6448 99.1479 40.6125C100.406 43.3733 101.158 44.9437 101.406 45.3225C101.537 45.5428 101.713 45.7334 101.922 45.8803C102.095 45.9885 102.634 46.1611 103.54 46.3956V47.2549C102.168 47.1699 100.892 47.1261 99.7113 47.1261C98.5465 47.1209 97.0914 47.1608 95.3459 47.2459ZM93.1219 35.4374L90.7429 40.8997L93.0484 40.9114C93.5988 40.9114 94.3902 40.9075 95.4222 40.8997L93.1219 35.4374Z" fill="white"/>
<path d="M104.106 31.6408V30.7815C105.922 30.8678 107.377 30.9103 108.47 30.9103C109.564 30.9103 111.003 30.8678 112.788 30.7815V31.6408C111.648 31.8263 110.934 31.9848 110.647 32.1162C110.565 32.1445 110.49 32.1896 110.426 32.2476C110.362 32.3043 110.311 32.3751 110.274 32.4524C110.197 32.6457 110.158 33.1571 110.158 33.9842V39.9232C110.158 41.4563 110.244 42.4959 110.417 43.0447C110.621 43.7546 111.064 44.373 111.671 44.7968C112.292 45.2374 113.167 45.4577 114.297 45.4577C115.546 45.4577 116.487 45.2052 117.122 44.6976C117.754 44.1952 118.188 43.4866 118.347 42.6969C118.529 41.8698 118.62 40.4527 118.621 38.4456C118.621 37.9818 118.59 36.6741 118.528 34.524C118.489 33.3336 118.431 32.6341 118.354 32.4241C118.309 32.303 118.222 32.1999 118.109 32.1342C117.961 32.0337 117.457 31.9023 116.596 31.74C116.495 31.7168 116.344 31.6859 116.143 31.6472V30.7879C117.78 30.8743 118.939 30.9168 119.622 30.9168C120.428 30.9168 121.483 30.8743 122.787 30.7879V31.6408C121.607 31.8572 120.924 32.0299 120.739 32.1561C120.646 32.2244 120.567 32.3107 120.509 32.4112C120.451 32.5104 120.414 32.6212 120.402 32.7358C120.332 33.1661 120.285 35.1347 120.261 38.6414C120.246 40.6524 120.196 41.9716 120.111 42.5977C119.979 43.457 119.768 44.1553 119.477 44.6912C119.153 45.267 118.718 45.7746 118.197 46.1817C117.646 46.6326 117.012 46.9714 116.331 47.1802C115.396 47.4558 114.424 47.5924 113.448 47.586C111.719 47.586 110.347 47.3373 109.332 46.8375C108.317 46.3389 107.61 45.6857 107.21 44.8767C106.811 44.0702 106.611 42.8889 106.611 41.3326V34.1633C106.611 33.2434 106.564 32.6637 106.471 32.4228C106.398 32.2656 106.267 32.1407 106.106 32.0749C105.93 32.0028 105.263 31.8585 104.106 31.6408Z" fill="white"/>
<path d="M139.924 35.6667H138.843C138.306 34.0357 137.978 33.1107 137.859 32.8943C137.749 32.6882 137.57 32.5258 137.353 32.4369C137.136 32.3519 136.446 32.3081 135.285 32.3081H134.157V43.1439C134.157 44.4889 134.203 45.3018 134.297 45.5801C134.326 45.66 134.371 45.7321 134.43 45.7939C134.489 45.8545 134.56 45.9022 134.639 45.9344C134.821 46.0207 135.525 46.1727 136.752 46.3917V47.251C134.385 47.166 132.865 47.1222 132.19 47.1222C131.273 47.1222 129.873 47.166 127.989 47.251V46.3917C129.23 46.1753 129.967 46.0039 130.2 45.8764C130.279 45.8313 130.348 45.7708 130.403 45.6973C130.458 45.6239 130.497 45.5414 130.519 45.4525C130.577 45.2554 130.606 44.4451 130.607 43.0228V32.303H128.644C127.985 32.303 127.549 32.3571 127.335 32.4653C127.098 32.5993 126.912 32.8067 126.805 33.0566C126.596 33.4908 126.301 34.3604 125.921 35.6667H124.862C124.993 34.5304 125.075 33.7459 125.107 33.3117C125.139 32.8788 125.174 32.035 125.212 30.7828C128.283 30.8691 131.286 30.9039 134.219 30.8871C136.702 30.8639 138.486 30.8292 139.572 30.7828C139.59 32.4163 139.708 34.0473 139.924 35.6667Z" fill="white"/>
<path d="M142.367 39.2752C142.367 36.6239 143.185 34.4866 144.822 32.866C146.459 31.2453 148.648 30.435 151.388 30.435C153.979 30.435 156.013 31.1654 157.492 32.6251C158.97 34.086 159.709 36.0365 159.709 38.4778C159.729 39.9413 159.431 41.3919 158.836 42.7291C158.414 43.6889 157.812 44.5598 157.061 45.2928C156.413 45.9344 155.658 46.4587 154.831 46.8426C153.698 47.3476 152.332 47.5989 150.734 47.5976C148.081 47.5976 146.023 46.8684 144.561 45.4075C143.099 43.9479 142.368 41.9033 142.367 39.2752ZM146.394 38.6491C146.394 41.464 146.906 43.533 147.93 44.8561C148.69 45.8455 149.78 46.3402 151.2 46.3402C152.177 46.3402 153.001 46.089 153.673 45.5865C154.345 45.0841 154.847 44.2777 155.18 43.1671C155.513 42.0579 155.68 40.7696 155.68 39.3023C155.683 38.2214 155.582 37.1431 155.377 36.0816C155.176 35.0509 154.9 34.247 154.55 33.6686C154.206 33.0927 153.725 32.6096 153.148 32.2643C152.563 31.9088 151.856 31.731 151.025 31.731C150.141 31.7194 149.276 31.9899 148.558 32.504C147.835 33.0193 147.294 33.8283 146.935 34.9285C146.559 36.1331 146.376 37.3879 146.394 38.6491Z" fill="white"/>
<path d="M162.312 31.6408V30.7815C164.466 30.8678 166.15 30.9103 167.366 30.9103L171.28 30.8524C172.445 30.8524 173.365 30.9773 174.039 31.2247C174.725 31.4798 175.304 31.9577 175.683 32.5813C176.103 33.2383 176.313 34.0357 176.312 34.971C176.312 36.4732 175.8 37.7086 174.776 38.6774C173.752 39.6475 172.351 40.1332 170.575 40.1332C169.884 40.1216 169.196 40.0559 168.516 39.9361C168.532 42.009 168.539 43.2084 168.539 43.533L168.528 44.3794C168.528 45.1228 168.59 45.5672 168.714 45.7141C168.915 45.9614 169.633 46.1585 170.867 46.3054C171.006 46.3209 171.216 46.3479 171.495 46.3866V47.2459C169.273 47.1608 167.669 47.117 166.682 47.117C165.54 47.117 164.083 47.1608 162.313 47.2459V46.3866C163.678 46.147 164.44 45.9576 164.599 45.8184C164.758 45.6793 164.854 45.4216 164.885 45.0455C164.916 44.6667 164.947 42.5707 164.978 38.7573L164.961 35.2416C164.948 33.827 164.919 32.9961 164.873 32.7474C164.861 32.6431 164.828 32.5426 164.776 32.4511C164.724 32.3597 164.654 32.2785 164.571 32.2141C164.369 32.075 163.787 31.9165 162.825 31.7387C162.708 31.7207 162.537 31.6885 162.312 31.6408ZM168.515 38.6246C168.988 38.671 169.395 38.6942 169.736 38.6942C170.635 38.6942 171.338 38.4198 171.842 37.871C172.347 37.3222 172.599 36.4719 172.598 35.3176C172.598 34.2973 172.35 33.5243 171.854 32.9987C171.358 32.473 170.653 32.2102 169.739 32.2102C169.329 32.2167 168.921 32.2553 168.517 32.3262L168.515 38.6246Z" fill="white"/>
<path d="M179.498 39.2752C179.498 36.6239 180.316 34.4866 181.953 32.866C183.59 31.2453 185.78 30.435 188.522 30.435C191.113 30.435 193.148 31.1654 194.625 32.6251C196.103 34.086 196.842 36.0365 196.843 38.4778C196.863 39.9413 196.565 41.3919 195.971 42.7291C195.549 43.6889 194.946 44.5598 194.195 45.2928C193.547 45.9331 192.793 46.4574 191.966 46.8426C190.833 47.3476 189.467 47.5989 187.869 47.5976C185.217 47.5976 183.159 46.8684 181.696 45.4075C180.233 43.9479 179.501 41.9033 179.498 39.2752ZM183.525 38.6491C183.525 41.464 184.037 43.533 185.061 44.8561C185.821 45.8455 186.911 46.3402 188.331 46.3402C189.309 46.3402 190.134 46.089 190.804 45.5865C191.474 45.0841 191.977 44.2777 192.311 43.1671C192.644 42.0579 192.811 40.7696 192.811 39.3023C192.814 38.2214 192.713 37.1431 192.509 36.0816C192.307 35.0509 192.032 34.247 191.683 33.6686C191.339 33.0927 190.857 32.6109 190.281 32.2643C189.694 31.9088 188.986 31.731 188.156 31.731C187.272 31.7194 186.407 31.9899 185.689 32.504C184.968 33.0193 184.427 33.8283 184.066 34.9285C183.691 36.1331 183.508 37.3892 183.525 38.6491Z" fill="white"/>
<path d="M199.419 31.6408V30.7815C202.045 30.8678 203.596 30.9103 204.072 30.9103C204.577 30.9103 205.307 30.8975 206.261 30.8704C207.215 30.8446 207.919 30.8305 208.37 30.8292C209.526 30.8292 210.427 30.9773 211.072 31.2711C211.72 31.5699 212.262 32.0595 212.623 32.674C213.016 33.3207 213.219 34.0641 213.21 34.8203C213.212 35.4902 213.068 36.1524 212.792 36.763C212.532 37.3621 212.151 37.9006 211.675 38.3476C211.372 38.6336 210.888 38.9428 210.221 39.2752C210.747 40.1809 211.52 41.4614 212.537 43.1156C213.28 44.3292 213.765 45.0571 213.994 45.2967C214.205 45.5234 214.454 45.7115 214.73 45.8532C215.132 46.0387 215.867 46.2165 216.936 46.3866V47.2459C215.617 47.1608 214.543 47.117 213.715 47.117C212.84 47.117 211.764 47.1608 210.484 47.2459C209.537 45.0725 208.324 42.5861 206.845 39.7854C206.399 39.7699 205.934 39.739 205.449 39.6926L205.495 44.5186C205.511 45.115 205.561 45.4835 205.648 45.6265C205.729 45.7669 205.855 45.8764 206.008 45.9344C206.116 45.9885 206.81 46.1392 208.09 46.3866V47.2459C206.281 47.1608 204.828 47.117 203.732 47.117C202.653 47.117 201.217 47.1608 199.421 47.2459V46.3866C200.734 46.147 201.473 45.9614 201.64 45.83C201.806 45.6986 201.912 45.441 201.957 45.0571C201.981 44.8483 201.996 42.8644 202.004 39.1052L201.993 35.6487C201.993 34.0254 201.966 33.0463 201.911 32.7127C201.879 32.4988 201.764 32.3043 201.591 32.1729C201.424 32.0543 200.876 31.9126 199.944 31.7503L199.419 31.6408ZM205.459 38.3811C205.848 38.3966 206.135 38.4043 206.323 38.4043C207.412 38.4043 208.215 38.1467 208.733 37.6313C209.25 37.116 209.51 36.3328 209.508 35.2815C209.508 34.2921 209.263 33.5372 208.773 33.0141C208.283 32.4924 207.618 32.2308 206.778 32.2308C206.434 32.2308 205.99 32.2579 205.448 32.312L205.459 38.3811Z" fill="white"/>
<path d="M232.701 35.6667H231.618C231.083 34.0357 230.755 33.1107 230.635 32.8943C230.525 32.6882 230.346 32.5258 230.129 32.4369C229.911 32.3519 229.222 32.3081 228.062 32.3081H226.932V43.1439C226.932 44.4889 226.978 45.3018 227.071 45.5801C227.101 45.66 227.147 45.7321 227.207 45.7939C227.266 45.8545 227.337 45.9022 227.416 45.9344C227.598 46.0207 228.302 46.1727 229.527 46.3917V47.251C227.16 47.166 225.64 47.1222 224.965 47.1222C224.05 47.1222 222.65 47.166 220.764 47.251V46.3917C222.007 46.1753 222.743 46.0039 222.976 45.8764C223.054 45.8313 223.124 45.7708 223.18 45.6973C223.234 45.6252 223.274 45.5414 223.296 45.4525C223.354 45.2554 223.382 44.4451 223.382 43.0228V32.303H221.43C220.769 32.303 220.334 32.3571 220.12 32.4653C219.883 32.5993 219.697 32.8067 219.591 33.0566C219.382 33.4908 219.087 34.3604 218.706 35.6667H217.647C217.779 34.5304 217.861 33.7459 217.892 33.3117C217.923 32.8788 217.958 32.035 217.996 30.7828C221.069 30.8691 224.071 30.9039 227.003 30.8871C229.487 30.8639 231.27 30.8292 232.356 30.7828C232.372 32.4163 232.487 34.0473 232.701 35.6667Z" fill="white"/>
<path d="M234.724 31.6408V30.7815C236.609 30.8678 238.199 30.9103 239.496 30.9103C239.999 30.9103 240.826 30.8949 241.975 30.864C242.517 30.8485 243.017 30.8408 243.475 30.8408C245.12 30.8408 246.308 31.0856 247.037 31.5725C247.998 32.2064 248.479 33.1391 248.479 34.3681C248.492 34.8667 248.401 35.3614 248.212 35.8226C248.024 36.2825 247.742 36.6999 247.385 37.0478C246.842 37.5966 246.012 38.0462 244.895 38.394C245.887 38.4713 246.687 38.6478 247.292 38.9209C247.881 39.1824 248.375 39.6179 248.706 40.1693C249.053 40.7632 249.229 41.4421 249.212 42.1288C249.213 43.046 248.94 43.944 248.426 44.7054C247.902 45.5015 247.117 46.116 246.07 46.5489C245.022 46.9818 243.677 47.1969 242.033 47.193C241.589 47.193 241.029 47.1814 240.353 47.1583C239.484 47.1196 238.891 47.1003 238.572 47.1003C237.982 47.1003 236.698 47.1467 234.72 47.2394V46.3801L236.66 45.9627C236.803 45.9254 236.936 45.8532 237.047 45.754C237.14 45.6561 237.208 45.5363 237.246 45.4062C237.307 45.1666 237.344 44.4902 237.354 43.3758C237.375 41.4267 237.385 39.6128 237.385 37.9354C237.385 37.0001 237.362 35.5301 237.315 33.5269C237.298 32.9304 237.229 32.5323 237.106 32.3313C237.016 32.2077 236.889 32.1149 236.745 32.0646C236.678 32.0402 236.004 31.8985 234.724 31.6408ZM240.809 37.9869H241.391C242.664 37.9869 243.588 37.7202 244.162 37.1856C244.737 36.6523 245.024 35.8625 245.022 34.819C245.022 33.9146 244.784 33.228 244.306 32.7577C243.83 32.2888 243.133 32.0531 242.219 32.0505C241.748 32.0582 241.277 32.0969 240.809 32.1664V37.9869ZM240.809 39.1928V45.763C241.282 45.8519 241.762 45.8983 242.242 45.9022C243.304 45.9022 244.105 45.6188 244.644 45.0493C245.184 44.4812 245.453 43.6013 245.453 42.4109C245.453 41.1883 245.146 40.3471 244.535 39.8871C243.922 39.4285 242.878 39.1979 241.403 39.1966L240.809 39.1928Z" fill="white"/>
<path d="M261.371 47.2459V46.3866C262.309 46.2152 262.852 46.0761 262.999 45.9679C263.07 45.9189 263.128 45.8532 263.167 45.7759C263.206 45.6986 263.225 45.6123 263.221 45.526C263.219 45.3997 263.196 45.2735 263.152 45.1537C263.028 44.8277 262.625 43.8499 261.944 42.2215C260.852 42.1983 259.943 42.1868 259.215 42.1868C258.619 42.1868 257.624 42.1983 256.229 42.2215C255.359 44.2545 254.924 45.3675 254.924 45.5608C254.918 45.6394 254.932 45.7193 254.964 45.7914C254.997 45.8635 255.047 45.9267 255.11 45.9743C255.234 46.0606 255.785 46.1985 256.763 46.3866V47.2459C255.786 47.1608 254.851 47.117 253.959 47.117C252.997 47.117 252.019 47.1608 251.026 47.2459V46.3866C251.724 46.2397 252.206 46.0735 252.469 45.8867C252.67 45.7373 252.837 45.5479 252.958 45.3289C253.261 44.8419 254.166 42.9546 255.672 39.6681C256.628 37.5888 257.992 34.5111 259.762 30.435H260.695C261.415 32.2527 262.909 35.6448 265.175 40.6125C266.43 43.3733 267.183 44.9437 267.432 45.3225C267.563 45.5428 267.739 45.7334 267.949 45.8803C268.121 45.9885 268.66 46.1611 269.567 46.3956V47.2549C268.193 47.1699 266.917 47.1261 265.738 47.1261C264.574 47.1209 263.118 47.1608 261.371 47.2459ZM259.149 35.4374L256.768 40.8997L259.074 40.9114C259.625 40.9114 260.417 40.9075 261.448 40.8997L259.149 35.4374Z" fill="white"/>
<path d="M271.215 31.6408V30.7815C272.712 30.8678 274.191 30.9103 275.649 30.9103C277.139 30.9103 278.597 30.8678 280.024 30.7815V31.6408L278.086 32.0273C277.878 32.0865 277.696 32.2128 277.569 32.3867C277.468 32.5413 277.418 32.8891 277.418 33.4277L277.394 38.7096C279.736 36.4294 281.416 34.6683 282.435 33.4277C282.915 32.8402 283.156 32.4537 283.156 32.2682C283.156 32.1394 283.075 32.0376 282.911 31.968C282.841 31.9371 282.349 31.8289 281.435 31.6434V30.7841C282.917 30.8704 284.116 30.9129 285.031 30.9129C285.946 30.9129 287.073 30.8704 288.417 30.7841V31.6408C287.291 31.8031 286.549 31.9758 286.188 32.1561C285.827 32.3378 285.263 32.8106 284.494 33.5732L280.487 37.6533C281.091 38.4198 281.987 39.4994 283.176 40.892C284.169 42.045 284.991 43.0332 285.642 43.8551C286.295 44.6783 286.859 45.2361 287.335 45.5299C287.813 45.8249 288.66 46.1109 289.879 46.3892V47.2484C288.382 47.1634 286.866 47.1196 285.329 47.1196C283.778 47.1196 282.289 47.1634 280.86 47.2484V46.3892C281.565 46.3119 282.018 46.2075 282.22 46.0761C282.278 46.0387 282.326 45.9872 282.358 45.9266C282.391 45.8661 282.407 45.7978 282.406 45.7283C282.406 45.6046 282.271 45.3688 281.998 45.021L277.392 39.0163L277.403 39.8176V43.4634C277.403 44.61 277.438 45.3057 277.508 45.5531C277.531 45.6342 277.571 45.7102 277.625 45.7746C277.68 45.8403 277.747 45.8932 277.822 45.9305C277.994 46.0284 278.573 46.1534 279.556 46.308C279.658 46.3234 279.809 46.3505 280.01 46.3892V47.2484C278.529 47.1634 277.193 47.1196 276.003 47.1196C275.002 47.1196 273.401 47.1634 271.197 47.2484V46.3892C272.523 46.165 273.295 45.9717 273.512 45.8094C273.66 45.7012 273.747 45.5041 273.771 45.2181C273.81 44.8239 273.829 42.6119 273.829 38.5821C273.829 35.1784 273.811 33.3014 273.776 32.9497C273.742 32.598 273.659 32.3674 273.525 32.2592C273.335 32.0878 272.565 31.8817 271.215 31.6408Z" fill="white"/>
<path d="M291.195 31.6408V30.7815C293.01 30.8678 294.466 30.9103 295.559 30.9103C296.651 30.9103 298.092 30.8678 299.876 30.7815V31.6408C298.735 31.8263 298.022 31.9848 297.735 32.1162C297.653 32.1445 297.578 32.1896 297.515 32.2476C297.45 32.3043 297.399 32.3751 297.362 32.4524C297.285 32.6457 297.246 33.1571 297.246 33.9842V39.9232C297.246 41.4563 297.333 42.4959 297.504 43.0447C297.71 43.7546 298.152 44.373 298.76 44.7968C299.378 45.2374 300.253 45.4577 301.386 45.4577C302.634 45.4577 303.575 45.2052 304.209 44.6976C304.841 44.1965 305.276 43.4879 305.436 42.6969C305.618 41.8698 305.71 40.4527 305.71 38.4456C305.71 37.9818 305.679 36.6741 305.617 34.524C305.577 33.3336 305.519 32.6341 305.44 32.4241C305.396 32.303 305.31 32.1999 305.196 32.1342C305.049 32.0337 304.545 31.9023 303.684 31.74C303.583 31.7168 303.426 31.6859 303.23 31.6472V30.7879C304.866 30.8743 306.027 30.9168 306.71 30.9168C307.516 30.9168 308.57 30.8743 309.875 30.7879V31.6408C308.696 31.8572 308.013 32.0299 307.826 32.1561C307.733 32.2244 307.654 32.3107 307.596 32.4112C307.538 32.5104 307.502 32.6212 307.489 32.7358C307.419 33.1661 307.373 35.1347 307.35 38.6414C307.334 40.6524 307.284 41.9716 307.199 42.5977C307.066 43.457 306.855 44.1553 306.565 44.6912C306.241 45.267 305.806 45.7746 305.285 46.1817C304.734 46.6326 304.101 46.9714 303.419 47.1802C302.484 47.4558 301.512 47.5924 300.537 47.586C298.808 47.586 297.436 47.3373 296.421 46.8375C295.406 46.3389 294.698 45.6857 294.299 44.8767C293.899 44.0702 293.7 42.8889 293.699 41.3326V34.1633C293.699 33.2434 293.653 32.6637 293.56 32.4228C293.486 32.2656 293.356 32.1407 293.193 32.0749C293.018 32.0028 292.352 31.8585 291.195 31.6408Z" fill="white"/>
<path d="M95.8817 68.2248H92.0473V67.7633H93.2012L91.8698 64.3195H88.1598L86.8284 67.7633H87.6982C87.7574 67.7633 87.8166 67.7692 87.8757 67.781C88.0651 67.8165 88.1598 67.9645 88.1598 68.2248H85V67.7633H86.1183L90.0947 57.5739H90.7515L94.8166 67.7633H95.4201C95.4793 67.7633 95.5385 67.7692 95.5976 67.781C95.787 67.8165 95.8817 67.9645 95.8817 68.2248ZM91.6746 63.8047L90.0059 59.5088L88.355 63.8047H91.6746Z" fill="white"/>
<path d="M100.417 67.781C100.476 67.781 100.535 67.7869 100.594 67.7988C100.772 67.8224 100.861 67.9645 100.861 68.2248H96.7778V67.781C97.1801 67.781 97.4701 67.7574 97.6476 67.71C98.0144 67.5917 98.1979 67.2603 98.1979 66.7159V61.1242H96.7778V60.6804H99.5292V67.781H100.417ZM99.7422 58.0887C99.7422 58.2307 99.7127 58.3668 99.6535 58.497C99.4878 58.8757 99.1979 59.0651 98.7837 59.0651C98.6535 59.0651 98.5233 59.0414 98.3931 58.994C98.0026 58.8284 97.8073 58.5266 97.8073 58.0887C97.8073 57.9467 97.8369 57.8106 97.8961 57.6804C98.0736 57.3017 98.3695 57.1124 98.7837 57.1124C98.9138 57.1124 99.0499 57.142 99.192 57.2011C99.5588 57.3787 99.7422 57.6745 99.7422 58.0887Z" fill="white"/>
<path d="M106.266 67.781C106.337 67.781 106.396 67.7869 106.443 67.7988C106.621 67.8224 106.709 67.9645 106.709 68.2248H102.325V67.781C102.727 67.781 103.017 67.7514 103.195 67.6923C103.502 67.5858 103.656 67.2603 103.656 66.7159V61.1242H102.325V60.6804H104.899L104.97 62.4378C105.124 62.0828 105.331 61.7633 105.591 61.4793C106.147 60.8757 106.78 60.5739 107.49 60.5739C107.597 60.5739 107.709 60.5858 107.828 60.6094C108.372 60.7278 108.644 61.0532 108.644 61.5858C108.644 61.6568 108.632 61.7278 108.609 61.7988C108.514 62.142 108.289 62.3136 107.934 62.3136C107.863 62.3136 107.792 62.3017 107.721 62.2781C107.556 62.2307 107.378 62.0414 107.189 61.71C107.023 61.4142 106.84 61.2662 106.638 61.2662C106.461 61.2781 106.242 61.4082 105.982 61.6568C105.319 62.3077 104.987 63.1716 104.987 64.2485V67.781H106.266Z" fill="white"/>
<path d="M112.221 71.1538H113.463C113.534 71.1538 113.594 71.1597 113.641 71.1716C113.818 71.1952 113.907 71.3372 113.907 71.5976H109.558V71.1538C109.96 71.1538 110.25 71.1242 110.428 71.0651C110.736 70.9585 110.889 70.6331 110.889 70.0887V61.1242H109.558V60.6804H112.114L112.203 62.6153C112.298 62.355 112.416 62.1065 112.558 61.8698C113.126 60.9585 113.984 60.5029 115.132 60.5029C115.878 60.5029 116.511 60.7396 117.031 61.213C117.777 61.9112 118.15 62.9349 118.15 64.284C118.15 65.4674 117.807 66.4437 117.12 67.213C116.41 68.0059 115.529 68.4023 114.475 68.4023C113.623 68.355 112.872 68.0473 112.221 67.4793V71.1538ZM114.564 61.213C114.138 61.213 113.747 61.3432 113.392 61.6035C112.6 62.1952 112.203 63.2603 112.203 64.7988C112.203 65.4615 112.292 66.0355 112.469 66.5207C112.813 67.4793 113.44 67.9585 114.351 67.9585C114.671 67.9585 114.966 67.8935 115.239 67.7633C116.173 67.3017 116.641 66.2011 116.641 64.4615C116.641 63.9763 116.6 63.5384 116.517 63.1479C116.244 61.8579 115.594 61.213 114.564 61.213Z" fill="white"/>
<path d="M121.442 64.4437C121.442 64.9526 121.484 65.4142 121.567 65.8284C121.874 67.2485 122.626 67.9585 123.821 67.9585C124.046 67.9585 124.265 67.929 124.478 67.8698C125.567 67.5266 126.111 66.3609 126.111 64.3727C126.111 64.0295 126.093 63.7159 126.058 63.4319C125.845 61.7751 125.081 60.9467 123.768 60.9467C123.484 60.9467 123.212 60.994 122.951 61.0887C121.945 61.4911 121.442 62.6094 121.442 64.4437ZM123.821 60.5029C124.602 60.5029 125.318 60.71 125.969 61.1242C127.07 61.8461 127.62 62.9526 127.62 64.4437C127.62 65.5443 127.277 66.4615 126.59 67.1952C125.845 68 124.904 68.4023 123.768 68.4023C122.963 68.4023 122.229 68.1775 121.567 67.7278C120.478 66.9822 119.933 65.8639 119.933 64.3727C119.933 63.2958 120.283 62.3964 120.981 61.6745C121.738 60.8935 122.685 60.5029 123.821 60.5029Z" fill="white"/>
<path d="M133.202 67.781C133.273 67.781 133.333 67.7869 133.38 67.7988C133.557 67.8224 133.646 67.9645 133.646 68.2248H129.262V67.781C129.664 67.781 129.954 67.7514 130.131 67.6923C130.439 67.5858 130.593 67.2603 130.593 66.7159V61.1242H129.262V60.6804H131.836L131.907 62.4378C132.06 62.0828 132.267 61.7633 132.528 61.4793C133.084 60.8757 133.717 60.5739 134.427 60.5739C134.534 60.5739 134.646 60.5858 134.764 60.6094C135.309 60.7278 135.581 61.0532 135.581 61.5858C135.581 61.6568 135.569 61.7278 135.546 61.7988C135.451 62.142 135.226 62.3136 134.871 62.3136C134.8 62.3136 134.729 62.3017 134.658 62.2781C134.492 62.2307 134.315 62.0414 134.125 61.71C133.96 61.4142 133.776 61.2662 133.575 61.2662C133.398 61.2781 133.179 61.4082 132.918 61.6568C132.256 62.3077 131.924 63.1716 131.924 64.2485V67.781H133.202Z" fill="white"/>
<path d="M136.388 61.1242V60.6804H137.631V58.994L138.962 58.6213V60.6804H141.714V61.1242H138.962V66.5207C138.974 67.4082 139.3 67.8639 139.939 67.8875C140.507 67.8047 140.939 67.2722 141.235 66.2899L141.714 66.3787C141.714 66.3905 141.714 66.4023 141.714 66.4142C141.442 67.7514 140.761 68.4201 139.672 68.4201C138.394 68.3727 137.714 67.6094 137.631 66.1301V61.1242H136.388Z" fill="white"/>
<path d="M146.346 61.1242V60.6804H147.589V58.994L148.92 58.6213V60.6804H151.672V61.1242H148.92V66.5207C148.932 67.4082 149.258 67.8639 149.897 67.8875C150.465 67.8047 150.897 67.2722 151.192 66.2899L151.672 66.3787C151.672 66.3905 151.672 66.4023 151.672 66.4142C151.4 67.7514 150.719 68.4201 149.63 68.4201C148.352 68.3727 147.672 67.6094 147.589 66.1301V61.1242H146.346Z" fill="white"/>
<path d="M156.633 67.781C156.704 67.781 156.763 67.7869 156.81 67.7988C156.988 67.8224 157.077 67.9645 157.077 68.2248H152.692V67.781C153.094 67.781 153.384 67.7514 153.562 67.6923C153.87 67.5858 154.023 67.2603 154.023 66.7159V61.1242H152.692V60.6804H155.266L155.337 62.4378C155.491 62.0828 155.698 61.7633 155.958 61.4793C156.515 60.8757 157.148 60.5739 157.858 60.5739C157.964 60.5739 158.077 60.5858 158.195 60.6094C158.739 60.7278 159.012 61.0532 159.012 61.5858C159.012 61.6568 159 61.7278 158.976 61.7988C158.881 62.142 158.657 62.3136 158.302 62.3136C158.231 62.3136 158.16 62.3017 158.089 62.2781C157.923 62.2307 157.745 62.0414 157.556 61.71C157.39 61.4142 157.207 61.2662 157.006 61.2662C156.828 61.2781 156.609 61.4082 156.349 61.6568C155.686 62.3077 155.355 63.1716 155.355 64.2485V67.781H156.633Z" fill="white"/>
<path d="M166.405 68.4023C165.576 68.3905 165.091 67.8579 164.949 66.8047C164.843 67.0532 164.683 67.2899 164.47 67.5148C163.878 68.1065 163.15 68.4023 162.286 68.4023C161.931 68.4023 161.594 68.3372 161.275 68.2071C160.482 67.8757 160.085 67.2603 160.085 66.3609C160.085 66.1006 160.121 65.8579 160.192 65.6331C160.594 64.4733 162.186 63.8935 164.967 63.8935V62.7751C164.931 61.6272 164.357 61.0177 163.245 60.9467C162.772 60.9467 162.422 61.0946 162.198 61.3905C162.138 61.4733 162.026 61.7337 161.86 62.1716C161.73 62.5148 161.529 62.6864 161.257 62.6864C161.198 62.6864 161.138 62.6804 161.079 62.6686C160.736 62.6094 160.564 62.3964 160.564 62.0295C160.564 61.8284 160.635 61.6272 160.778 61.426C161.227 60.8106 162.115 60.5029 163.44 60.5029C163.547 60.5029 163.653 60.5029 163.76 60.5029C165.452 60.5976 166.298 61.4911 166.298 63.1834V66.929C166.31 67.5207 166.47 67.8284 166.778 67.852C167.156 67.8402 167.387 67.4023 167.47 66.5384L167.931 66.5562C167.931 66.6153 167.925 66.6804 167.914 66.7514C167.819 67.852 167.316 68.4023 166.405 68.4023ZM162.872 67.6923C163.133 67.6923 163.399 67.6331 163.671 67.5148C164.357 67.1834 164.789 66.6094 164.967 65.7929V64.3727C164.044 64.3846 163.34 64.4437 162.854 64.5503C161.943 64.7633 161.488 65.2662 161.488 66.0591C161.488 66.2603 161.505 66.4437 161.541 66.6094C161.707 67.3313 162.15 67.6923 162.872 67.6923Z" fill="white"/>
<path d="M172.378 67.781C172.449 67.781 172.508 67.7869 172.555 67.7988C172.733 67.8224 172.822 67.9645 172.822 68.2248H168.916V67.781C169.319 67.781 169.609 67.7514 169.786 67.6923C170.094 67.5858 170.248 67.2603 170.248 66.7159V61.1242H168.916V60.6804H171.49L171.561 62.4556C171.691 62.1242 171.863 61.8224 172.076 61.5503C172.644 60.852 173.366 60.5029 174.242 60.5029C174.68 60.5029 175.088 60.6153 175.467 60.8402C176.283 61.3491 176.691 62.1952 176.691 63.3787V67.781H177.579C177.65 67.781 177.709 67.7869 177.756 67.7988C177.934 67.8224 178.023 67.9645 178.023 68.2248H174.029V67.781C174.431 67.781 174.721 67.7514 174.898 67.6923C175.206 67.5858 175.36 67.2603 175.36 66.7159V63.2011C175.36 62.8579 175.307 62.5503 175.2 62.2781C174.94 61.6035 174.449 61.2662 173.727 61.2662C173.396 61.2662 173.07 61.3668 172.751 61.568C172.005 62.0532 171.614 62.8461 171.579 63.9467V67.781H172.378Z" fill="white"/>
<path d="M182.203 67.923C183.019 67.923 183.57 67.6745 183.854 67.1775C183.96 67 184.013 66.8047 184.013 66.5917C184.013 66.0946 183.653 65.6686 182.931 65.3136C182.777 65.2307 182.522 65.1124 182.167 64.9585C181.197 64.5562 180.552 64.1775 180.232 63.8224C179.889 63.4319 179.718 62.9763 179.718 62.4556C179.718 61.639 180.167 61.0651 181.067 60.7337C181.481 60.5798 181.931 60.5029 182.416 60.5029C183.197 60.5029 183.871 60.6686 184.44 61C184.44 60.6568 184.522 60.4615 184.688 60.4142C184.759 60.4023 184.836 60.3964 184.919 60.3964V62.6153H184.457C184.434 61.5266 183.83 60.9763 182.647 60.9645C181.759 60.9645 181.209 61.2248 180.996 61.7455C180.937 61.8875 180.907 62.0355 180.907 62.1893C180.907 62.6982 181.274 63.1301 182.008 63.4852C182.173 63.568 182.434 63.6804 182.789 63.8224C183.747 64.213 184.386 64.5858 184.706 64.9408C185.049 65.3195 185.221 65.7692 185.221 66.2899C185.221 67.2485 184.712 67.8875 183.694 68.2071C183.303 68.3372 182.877 68.4023 182.416 68.4023C181.564 68.3905 180.824 68.1775 180.197 67.7633C180.197 68.071 180.12 68.2485 179.966 68.2958C179.895 68.3077 179.812 68.3136 179.718 68.3136V65.6153H180.215C180.238 67.142 180.901 67.9112 182.203 67.923Z" fill="white"/>
<path d="M190.75 67.781C190.821 67.781 190.88 67.7869 190.927 67.7988C191.105 67.8224 191.194 67.9645 191.194 68.2248H186.844V67.781C187.247 67.781 187.537 67.7514 187.714 67.6923C188.022 67.5858 188.176 67.2603 188.176 66.7159V61.1242H186.933V60.6804H188.176V60.3964C188.176 59.426 188.359 58.6213 188.726 57.9822C189.271 57.0591 190.099 56.5976 191.211 56.5976C191.637 56.5976 192.022 56.6627 192.365 56.7929C192.957 57.0414 193.253 57.3846 193.253 57.8224C193.253 57.8698 193.247 57.923 193.235 57.9822C193.164 58.3136 192.933 58.4793 192.543 58.4793C192.424 58.4793 192.318 58.4437 192.223 58.3727C192.129 58.3017 191.975 58.0769 191.762 57.6982C191.513 57.2603 191.205 57.0414 190.839 57.0414C190.685 57.0414 190.543 57.071 190.413 57.1301C189.809 57.4023 189.507 58.5503 189.507 60.5739V60.6804H191.549V61.1242H189.507V67.781H190.75Z" fill="white"/>
<path d="M196.474 60.9467C196.167 60.9467 195.877 61.0177 195.604 61.1597C194.776 61.5739 194.332 62.4615 194.273 63.8224L196.155 63.8757C196.699 63.8875 197.119 63.8639 197.415 63.8047C197.983 63.6745 198.267 63.3136 198.267 62.7219C198.267 62.4615 198.22 62.2189 198.125 61.994C197.853 61.2958 197.303 60.9467 196.474 60.9467ZM199.563 66.5207C199.492 66.6864 199.409 66.852 199.315 67.0177C198.711 67.9408 197.77 68.4023 196.492 68.4023C195.687 68.4023 194.971 68.1952 194.344 67.781C193.291 67.071 192.764 65.9822 192.764 64.5148C192.764 63.71 192.93 62.9881 193.261 62.3491C193.9 61.1183 194.96 60.5029 196.439 60.5029C197.196 60.5029 197.865 60.6745 198.445 61.0177C199.261 61.4911 199.67 62.1301 199.67 62.9349C199.67 63.3727 199.51 63.71 199.19 63.9467C198.776 64.2426 197.847 64.3787 196.403 64.355L194.273 64.3195C194.285 64.8165 194.338 65.2722 194.433 65.6864C194.752 67.1656 195.533 67.9053 196.776 67.9053C196.883 67.9053 196.995 67.8994 197.113 67.8875C198.036 67.7692 198.705 67.2603 199.119 66.3609L199.563 66.5207Z" fill="white"/>
<path d="M205.163 67.781C205.234 67.781 205.293 67.7869 205.341 67.7988C205.518 67.8224 205.607 67.9645 205.607 68.2248H201.222V67.781C201.625 67.781 201.915 67.7514 202.092 67.6923C202.4 67.5858 202.554 67.2603 202.554 66.7159V61.1242H201.222V60.6804H203.796L203.867 62.4378C204.021 62.0828 204.228 61.7633 204.489 61.4793C205.045 60.8757 205.678 60.5739 206.388 60.5739C206.495 60.5739 206.607 60.5858 206.725 60.6094C207.27 60.7278 207.542 61.0532 207.542 61.5858C207.542 61.6568 207.53 61.7278 207.507 61.7988C207.412 62.142 207.187 62.3136 206.832 62.3136C206.761 62.3136 206.69 62.3017 206.619 62.2781C206.453 62.2307 206.276 62.0414 206.086 61.71C205.921 61.4142 205.737 61.2662 205.536 61.2662C205.359 61.2781 205.14 61.4082 204.879 61.6568C204.217 62.3077 203.885 63.1716 203.885 64.2485V67.781H205.163Z" fill="white"/>
<path d="M211.367 67.923C212.184 67.923 212.734 67.6745 213.018 67.1775C213.124 67 213.178 66.8047 213.178 66.5917C213.178 66.0946 212.817 65.6686 212.095 65.3136C211.941 65.2307 211.687 65.1124 211.332 64.9585C210.361 64.5562 209.716 64.1775 209.397 63.8224C209.053 63.4319 208.882 62.9763 208.882 62.4556C208.882 61.639 209.332 61.0651 210.231 60.7337C210.645 60.5798 211.095 60.5029 211.58 60.5029C212.361 60.5029 213.036 60.6686 213.604 61C213.604 60.6568 213.687 60.4615 213.852 60.4142C213.923 60.4023 214 60.3964 214.083 60.3964V62.6153H213.622C213.598 61.5266 212.994 60.9763 211.811 60.9645C210.923 60.9645 210.373 61.2248 210.16 61.7455C210.101 61.8875 210.071 62.0355 210.071 62.1893C210.071 62.6982 210.438 63.1301 211.172 63.4852C211.338 63.568 211.598 63.6804 211.953 63.8224C212.911 64.213 213.551 64.5858 213.87 64.9408C214.213 65.3195 214.385 65.7692 214.385 66.2899C214.385 67.2485 213.876 67.8875 212.858 68.2071C212.468 68.3372 212.042 68.4023 211.58 68.4023C210.728 68.3905 209.988 68.1775 209.361 67.7633C209.361 68.071 209.284 68.2485 209.13 68.2958C209.059 68.3077 208.977 68.3136 208.882 68.3136V65.6153H209.379C209.403 67.142 210.065 67.9112 211.367 67.923Z" fill="white"/>
<path d="M223.295 59.2781C223.295 59.7633 223.497 60.4082 223.899 61.213C224.337 61.0946 224.721 60.9112 225.053 60.6627C225.633 60.2248 225.923 59.7278 225.923 59.1716C225.923 58.994 225.893 58.8165 225.834 58.639C225.644 58.1065 225.236 57.8402 224.609 57.8402C224.455 57.8402 224.307 57.8639 224.165 57.9112C223.585 58.1006 223.295 58.5562 223.295 59.2781ZM224.059 67.8698C224.934 67.8698 225.715 67.5858 226.402 67.0177C224.887 65.2307 223.733 63.5917 222.94 62.1006C222.763 62.1597 222.585 62.2485 222.408 62.3668C221.745 62.8402 221.414 63.5976 221.414 64.639C221.414 65.0887 221.461 65.5029 221.556 65.8816C221.899 67.2071 222.733 67.8698 224.059 67.8698ZM228.621 62.5621C228.621 64.0532 228.284 65.3195 227.609 66.3609C228.165 66.9881 228.585 67.4556 228.869 67.7633H229.526C229.585 67.7633 229.639 67.7692 229.686 67.781C229.875 67.8047 229.97 67.9526 229.97 68.2248H227.467C227.124 67.858 226.863 67.568 226.686 67.355C225.857 68.0414 224.792 68.3905 223.491 68.4023C222.568 68.4023 221.781 68.1538 221.13 67.6568C220.313 67.0295 219.905 66.1775 219.905 65.1006C219.905 64.6982 219.964 64.3195 220.082 63.9645C220.473 62.8402 221.36 62.0887 222.745 61.71C222.331 60.8343 222.118 60.1242 222.106 59.5798C222.106 59.213 222.183 58.8698 222.337 58.5503C222.715 57.781 223.461 57.3964 224.573 57.3964C224.869 57.3964 225.147 57.4556 225.408 57.5739C226.082 57.8698 226.42 58.4023 226.42 59.1716C226.42 59.4674 226.343 59.7633 226.189 60.0591C225.786 60.8165 225.094 61.3313 224.112 61.6035C224.81 62.858 225.863 64.3136 227.272 65.9704C227.84 64.9881 228.124 63.8402 228.124 62.5266H227.147V62.0651H229.704C229.704 62.1597 229.692 62.2485 229.668 62.3313C229.633 62.4733 229.479 62.5443 229.207 62.5443L228.656 62.5621H228.603H228.621Z" fill="white"/>
<path d="M240.744 68.2248L240.602 66.3432C240.022 67.6923 239.088 68.3787 237.798 68.4023C237.17 68.4023 236.596 68.2189 236.076 67.852C235.153 67.1775 234.691 66.1065 234.691 64.639C234.691 63.7514 234.892 62.9526 235.295 62.2426C235.957 61.0828 236.94 60.5029 238.241 60.5029C239.224 60.5029 240.005 60.8224 240.585 61.4615V57.1301H238.898V56.6864H241.916L241.951 67.781H242.839C242.91 67.781 242.969 67.7869 243.017 67.7988C243.194 67.8224 243.283 67.9645 243.283 68.2248H240.744ZM236.2 64.426C236.2 64.9822 236.259 65.4793 236.378 65.9171C236.673 67.1006 237.307 67.6923 238.277 67.6923C238.762 67.6923 239.194 67.5207 239.573 67.1775C240.283 66.5384 240.638 65.5088 240.638 64.0887C240.638 63.4142 240.537 62.8284 240.336 62.3313C239.969 61.4082 239.354 60.9467 238.49 60.9467C238.147 60.9467 237.833 61.0236 237.549 61.1775C236.65 61.6745 236.2 62.7574 236.2 64.426Z" fill="white"/>
<path d="M251.013 68.4023C250.185 68.3905 249.7 67.8579 249.558 66.8047C249.451 67.0532 249.291 67.2899 249.078 67.5148C248.487 68.1065 247.759 68.4023 246.895 68.4023C246.54 68.4023 246.203 68.3372 245.883 68.2071C245.09 67.8757 244.694 67.2603 244.694 66.3609C244.694 66.1006 244.729 65.8579 244.8 65.6331C245.203 64.4733 246.794 63.8935 249.575 63.8935V62.7751C249.54 61.6272 248.966 61.0177 247.854 60.9467C247.38 60.9467 247.031 61.0946 246.806 61.3905C246.747 61.4733 246.635 61.7337 246.469 62.1716C246.339 62.5148 246.138 62.6864 245.865 62.6864C245.806 62.6864 245.747 62.6804 245.688 62.6686C245.345 62.6094 245.173 62.3964 245.173 62.0295C245.173 61.8284 245.244 61.6272 245.386 61.426C245.836 60.8106 246.723 60.5029 248.049 60.5029C248.155 60.5029 248.262 60.5029 248.368 60.5029C250.061 60.5976 250.907 61.4911 250.907 63.1834V66.929C250.919 67.5207 251.078 67.8284 251.386 67.852C251.765 67.8402 251.995 67.4023 252.078 66.5384L252.54 66.5562C252.54 66.6153 252.534 66.6804 252.522 66.7514C252.427 67.852 251.924 68.4023 251.013 68.4023ZM247.481 67.6923C247.741 67.6923 248.007 67.6331 248.28 67.5148C248.966 67.1834 249.398 66.6094 249.575 65.7929V64.3727C248.652 64.3846 247.948 64.4437 247.463 64.5503C246.552 64.7633 246.096 65.2662 246.096 66.0591C246.096 66.2603 246.114 66.4437 246.149 66.6094C246.315 67.3313 246.759 67.6923 247.481 67.6923Z" fill="white"/>
<path d="M254.821 71.0473C254.986 71.0473 255.152 71.0118 255.318 70.9408C255.898 70.6923 256.519 69.7869 257.182 68.2248L253.986 61.142H253.116V60.6804H256.578V61.142H255.389L257.821 66.8224L260.093 61.142H258.797V60.6804H261.495C261.495 60.7869 261.483 60.8757 261.46 60.9467C261.424 61.0769 261.288 61.142 261.051 61.142C260.945 61.142 260.85 61.1538 260.767 61.1775C260.625 61.2248 260.495 61.4142 260.377 61.7455L257.75 68.2248C257.489 68.8639 257.217 69.4142 256.933 69.8757C256.247 71.0236 255.436 71.5976 254.501 71.5976C254.241 71.5976 253.992 71.5503 253.756 71.4556C253.235 71.2544 252.974 70.929 252.974 70.4793C252.974 70.4437 252.98 70.4023 252.992 70.355C253.051 70.0236 253.27 69.8579 253.649 69.8579C253.791 69.8579 253.915 69.8935 254.022 69.9645C254.14 70.0473 254.264 70.2662 254.395 70.6213C254.489 70.9053 254.631 71.0473 254.821 71.0473Z" fill="white"/>
<path d="M266.128 61.1242V60.6804H267.37V58.994L268.702 58.6213V60.6804H271.453V61.1242H268.702V66.5207C268.713 67.4082 269.039 67.8639 269.678 67.8875C270.246 67.8047 270.678 67.2722 270.974 66.2899L271.453 66.3787C271.453 66.3905 271.453 66.4023 271.453 66.4142C271.181 67.7514 270.5 68.4201 269.412 68.4201C268.133 68.3727 267.453 67.6094 267.37 66.1301V61.1242H266.128Z" fill="white"/>
<path d="M274.124 64.4437C274.124 64.9526 274.166 65.4142 274.249 65.8284C274.556 67.2485 275.308 67.9585 276.503 67.9585C276.728 67.9585 276.947 67.929 277.16 67.8698C278.249 67.5266 278.793 66.3609 278.793 64.3727C278.793 64.0295 278.775 63.7159 278.74 63.4319C278.527 61.7751 277.763 60.9467 276.45 60.9467C276.166 60.9467 275.893 60.994 275.633 61.0887C274.627 61.4911 274.124 62.6094 274.124 64.4437ZM276.503 60.5029C277.284 60.5029 278 60.71 278.651 61.1242C279.751 61.8461 280.302 62.9526 280.302 64.4437C280.302 65.5443 279.959 66.4615 279.272 67.1952C278.527 68 277.586 68.4023 276.45 68.4023C275.645 68.4023 274.911 68.1775 274.249 67.7278C273.16 66.9822 272.615 65.8639 272.615 64.3727C272.615 63.2958 272.964 62.3964 273.663 61.6745C274.42 60.8935 275.367 60.5029 276.503 60.5029Z" fill="white"/>
<path d="M290.517 67.781C290.588 67.781 290.648 67.7869 290.695 67.7988C290.872 67.8224 290.961 67.9645 290.961 68.2248H288.458L288.334 66.4142C288.204 66.7455 288.032 67.0473 287.819 67.3195C287.251 68.0414 286.523 68.4023 285.636 68.4023C283.955 68.3905 283.109 67.3727 283.097 65.3491V61.1242H281.73V60.6804H284.429V65.6153C284.429 65.8047 284.44 65.9822 284.464 66.1479C284.618 67.142 285.18 67.639 286.151 67.639C286.506 67.639 286.849 67.5266 287.18 67.3017C287.926 66.8047 288.298 66.0236 288.298 64.9585V61.1242H286.843V60.6804H289.63V67.781H290.517Z" fill="white"/>
<path d="M296.313 67.781C296.384 67.781 296.443 67.7869 296.49 67.7988C296.668 67.8224 296.757 67.9645 296.757 68.2248H292.372V67.781C292.774 67.781 293.064 67.7514 293.242 67.6923C293.55 67.5858 293.703 67.2603 293.703 66.7159V61.1242H292.372V60.6804H294.946L295.017 62.4378C295.171 62.0828 295.378 61.7633 295.638 61.4793C296.195 60.8757 296.828 60.5739 297.538 60.5739C297.644 60.5739 297.757 60.5858 297.875 60.6094C298.419 60.7278 298.692 61.0532 298.692 61.5858C298.692 61.6568 298.68 61.7278 298.656 61.7988C298.561 62.142 298.337 62.3136 297.982 62.3136C297.911 62.3136 297.84 62.3017 297.768 62.2781C297.603 62.2307 297.425 62.0414 297.236 61.71C297.07 61.4142 296.887 61.2662 296.686 61.2662C296.508 61.2781 296.289 61.4082 296.029 61.6568C295.366 62.3077 295.035 63.1716 295.035 64.2485V67.781H296.313Z" fill="white"/>
<path d="M302.517 67.923C303.333 67.923 303.884 67.6745 304.168 67.1775C304.274 67 304.327 66.8047 304.327 66.5917C304.327 66.0946 303.966 65.6686 303.244 65.3136C303.091 65.2307 302.836 65.1124 302.481 64.9585C301.511 64.5562 300.866 64.1775 300.546 63.8224C300.203 63.4319 300.031 62.9763 300.031 62.4556C300.031 61.639 300.481 61.0651 301.381 60.7337C301.795 60.5798 302.244 60.5029 302.73 60.5029C303.511 60.5029 304.185 60.6686 304.753 61C304.753 60.6568 304.836 60.4615 305.002 60.4142C305.073 60.4023 305.15 60.3964 305.233 60.3964V62.6153H304.771C304.747 61.5266 304.144 60.9763 302.96 60.9645C302.073 60.9645 301.523 61.2248 301.31 61.7455C301.25 61.8875 301.221 62.0355 301.221 62.1893C301.221 62.6982 301.588 63.1301 302.321 63.4852C302.487 63.568 302.747 63.6804 303.102 63.8224C304.061 64.213 304.7 64.5858 305.02 64.9408C305.363 65.3195 305.534 65.7692 305.534 66.2899C305.534 67.2485 305.026 67.8875 304.008 68.2071C303.617 68.3372 303.191 68.4023 302.73 68.4023C301.878 68.3905 301.138 68.1775 300.511 67.7633C300.511 68.071 300.434 68.2485 300.28 68.2958C300.209 68.3077 300.126 68.3136 300.031 68.3136V65.6153H300.529C300.552 67.142 301.215 67.9112 302.517 67.923Z" fill="white"/>
</svg>
