<svg width="282" height="211" viewBox="0 0 282 211" fill="none" xmlns="http://www.w3.org/2000/svg">
<g clip-path="url(#clip0_325_1772)">
<path d="M144.379 7.9022C145.289 9.72729 146.202 11.5524 147.115 13.3776L213.65 139.695H201.901L140.7 26.4154L81.1736 139.695H67.6523L134.286 13.3728C135.198 11.5477 136.11 9.72245 137.022 7.89737L140.7 0.425049L144.379 7.9022Z" fill="white"/>
<path d="M144.379 47.2685C145.289 49.0936 146.202 50.9189 147.115 52.7439L192.136 139.696H178.76L140.7 65.7819L102.382 139.696H89.1777L134.286 52.7393C135.198 50.914 136.11 49.0889 137.022 47.2639L140.7 39.7914L144.379 47.2685Z" fill="white"/>
<path d="M144.378 86.98C145.288 88.8051 146.201 90.6302 147.114 92.4554L170.701 139.696H157.526L140.699 105.493L123.873 139.696H110.697L134.285 92.4504C135.197 90.6253 136.109 88.8002 137.021 86.975L140.699 79.5027L144.378 86.98Z" fill="white"/>
<path d="M13.0325 181.554V180.48C14.2053 180.266 14.8838 180.092 15.0679 179.956C15.1566 179.895 15.2285 179.812 15.2768 179.716C15.325 179.62 15.3482 179.512 15.3442 179.404C15.3398 179.246 15.3105 179.088 15.2569 178.939C15.1019 178.531 14.5983 177.309 13.7465 175.273C12.3821 175.244 11.2448 175.23 10.3348 175.23C9.59069 175.23 8.34724 175.244 6.60491 175.273C5.51599 177.815 4.97225 179.206 4.97322 179.448C4.9658 179.546 4.98322 179.646 5.02387 179.736C5.06435 179.826 5.1271 179.905 5.20597 179.964C5.36098 180.072 6.04972 180.245 7.27203 180.48V181.554C6.04972 181.448 4.88063 181.393 3.76494 181.393C2.56311 181.393 1.34128 181.448 0.0996094 181.554V180.48C0.971907 180.296 1.57339 180.089 1.90405 179.855C2.15486 179.668 2.3631 179.431 2.51472 179.158C2.89264 178.549 4.0235 176.19 5.90697 172.082C7.10025 169.482 8.80501 165.635 11.0214 160.54H12.1844C13.0879 162.812 14.9548 167.052 17.7851 173.262C19.3573 176.713 20.2981 178.676 20.6072 179.15C20.771 179.425 20.9912 179.663 21.2533 179.847C21.4686 179.982 22.1429 180.198 23.2758 180.491V181.565C21.5603 181.459 19.9647 181.404 18.4893 181.404C17.0333 181.398 15.2143 181.448 13.0325 181.554ZM10.2523 166.793L7.27849 173.621L10.1604 173.636C10.8485 173.636 11.8377 173.631 13.1278 173.621L10.2523 166.793Z" fill="white"/>
<path d="M23.9844 162.047V160.973C26.2546 161.081 28.0729 161.134 29.4396 161.134C30.8063 161.134 32.6053 161.081 34.8366 160.973V162.047C33.4119 162.279 32.5196 162.477 32.1599 162.641C32.0581 162.677 31.9646 162.733 31.8847 162.806C31.8047 162.876 31.7402 162.965 31.6947 163.062C31.5978 163.303 31.5494 163.943 31.5494 164.976V172.4C31.5494 174.317 31.657 175.616 31.8725 176.302C32.1285 177.19 32.6822 177.963 33.4409 178.493C34.2163 179.043 35.3105 179.319 36.7235 179.319C38.2839 179.319 39.461 179.003 40.2548 178.369C41.0447 177.741 41.5871 176.855 41.7862 175.868C42.0134 174.834 42.1275 173.062 42.1286 170.553C42.1286 169.974 42.0899 168.339 42.0123 165.651C41.9639 164.163 41.8912 163.289 41.7942 163.026C41.7378 162.875 41.6299 162.746 41.4889 162.664C41.3037 162.538 40.6732 162.374 39.5973 162.171C39.4712 162.142 39.2823 162.103 39.0302 162.055V160.981C41.0764 161.089 42.526 161.142 43.379 161.142C44.3869 161.142 45.7062 161.089 47.3366 160.981V162.047C45.8612 162.318 45.0078 162.533 44.7763 162.691C44.659 162.777 44.561 162.884 44.4884 163.01C44.4158 163.134 44.3701 163.273 44.3547 163.416C44.2674 163.954 44.2087 166.414 44.1785 170.798C44.1592 173.312 44.0967 174.961 43.9911 175.744C43.8264 176.818 43.562 177.691 43.198 178.361C42.7935 179.08 42.2499 179.715 41.5987 180.224C40.9098 180.787 40.1175 181.211 39.266 181.472C38.0963 181.816 36.8819 181.987 35.6622 181.979C33.5008 181.979 31.7857 181.668 30.5171 181.043C29.2485 180.42 28.3643 179.604 27.8646 178.592C27.3649 177.584 27.115 176.108 27.115 174.162V165.2C27.115 164.05 27.0569 163.326 26.9406 163.025C26.8492 162.828 26.6856 162.672 26.4835 162.59C26.2638 162.5 25.4307 162.319 23.9844 162.047Z" fill="white"/>
<path d="M68.7588 167.079H67.4066C66.7358 165.041 66.3259 163.884 66.1774 163.614C66.0398 163.356 65.8157 163.153 65.5441 163.042C65.2728 162.936 64.4112 162.881 62.9595 162.881H61.5493V176.426C61.5493 178.108 61.6073 179.124 61.7238 179.472C61.7602 179.571 61.8172 179.662 61.8909 179.739C61.9646 179.815 62.0535 179.874 62.1519 179.914C62.379 180.022 63.2595 180.212 64.7929 180.486V181.56C61.8346 181.454 59.9339 181.399 59.0906 181.399C57.9447 181.399 56.1942 181.454 53.8389 181.56V180.486C55.3898 180.216 56.3111 180.001 56.6029 179.842C56.7019 179.786 56.7882 179.71 56.8568 179.618C56.9255 179.526 56.9747 179.423 57.0019 179.312C57.074 179.066 57.1107 178.053 57.1118 176.275V162.875H54.658C53.8341 162.875 53.2886 162.942 53.0216 163.078C52.7253 163.245 52.4925 163.504 52.3592 163.817C52.0975 164.359 51.7293 165.446 51.2543 167.079H49.9297C50.0944 165.659 50.1968 164.678 50.2366 164.136C50.2765 163.595 50.32 162.54 50.3675 160.974C54.2067 161.082 57.9599 161.126 61.6268 161.105C64.7305 161.076 66.9608 161.032 68.3178 160.974C68.3413 163.016 68.4886 165.055 68.7588 167.079Z" fill="white"/>
<path d="M71.8105 171.59C71.8105 168.276 72.8337 165.604 74.8799 163.579C76.9259 161.553 79.6619 160.54 83.0877 160.54C86.326 160.54 88.8692 161.453 90.7172 163.277C92.5652 165.104 93.4893 167.542 93.4893 170.593C93.5144 172.423 93.1418 174.236 92.3971 175.908C91.8707 177.108 91.1177 178.196 90.1793 179.113C89.3686 179.915 88.4253 180.57 87.3911 181.05C85.9749 181.681 84.2679 181.995 82.2702 181.994C78.9533 181.994 76.3811 181.082 74.5534 179.256C72.7259 177.431 71.8117 174.876 71.8105 171.59ZM76.8442 170.808C76.8442 174.326 77.4844 176.913 78.7649 178.567C79.7146 179.803 81.0769 180.422 82.8519 180.422C84.073 180.422 85.1037 180.108 85.9436 179.48C86.7836 178.852 87.4116 177.844 87.8272 176.455C88.244 175.069 88.4524 173.458 88.4524 171.624C88.4568 170.273 88.3302 168.925 88.0744 167.598C87.8224 166.31 87.4777 165.305 87.0406 164.582C86.6106 163.862 86.0085 163.258 85.2878 162.826C84.5566 162.382 83.6719 162.16 82.6338 162.16C81.5284 162.145 80.4474 162.483 79.5499 163.126C78.6463 163.77 77.97 164.782 77.521 166.157C77.0508 167.663 76.8224 169.231 76.8442 170.808Z" fill="white"/>
<path d="M96.7441 162.047V160.973C99.4364 161.081 101.542 161.134 103.062 161.134L107.955 161.061C109.411 161.061 110.561 161.218 111.404 161.527C112.261 161.846 112.985 162.443 113.459 163.223C113.984 164.044 114.246 165.041 114.245 166.21C114.245 168.088 113.605 169.632 112.325 170.843C111.044 172.056 109.294 172.663 107.073 172.663C106.21 172.648 105.35 172.566 104.5 172.416C104.519 175.008 104.529 176.507 104.529 176.913L104.514 177.971C104.514 178.9 104.592 179.456 104.747 179.639C104.999 179.948 105.896 180.195 107.438 180.378C107.613 180.398 107.874 180.432 108.223 180.48V181.554C105.446 181.448 103.44 181.393 102.207 181.393C100.779 181.393 98.9588 181.448 96.7458 181.554V180.48C98.4516 180.18 99.4041 179.944 99.6033 179.77C99.8025 179.596 99.9215 179.274 99.9604 178.803C99.9991 178.33 100.038 175.71 100.077 170.943L100.056 166.548C100.039 164.78 100.003 163.741 99.9457 163.43C99.9303 163.3 99.8888 163.174 99.8238 163.06C99.759 162.946 99.6719 162.844 99.5678 162.764C99.3159 162.59 98.5884 162.392 97.3855 162.169C97.239 162.147 97.0251 162.107 96.7441 162.047ZM104.498 170.777C105.089 170.835 105.598 170.864 106.025 170.864C107.149 170.864 108.027 170.521 108.658 169.835C109.289 169.149 109.604 168.086 109.603 166.643C109.603 165.368 109.292 164.401 108.672 163.744C108.052 163.087 107.17 162.759 106.028 162.759C105.516 162.767 105.005 162.815 104.501 162.904L104.498 170.777Z" fill="white"/>
<path d="M118.227 171.59C118.227 168.276 119.25 165.604 121.296 163.579C123.342 161.553 126.079 160.54 129.507 160.54C132.746 160.54 135.289 161.453 137.136 163.277C138.983 165.104 139.907 167.542 139.908 170.593C139.933 172.423 139.561 174.236 138.818 175.908C138.291 177.108 137.537 178.196 136.599 179.113C135.788 179.913 134.846 180.568 133.812 181.05C132.396 181.681 130.689 181.995 128.691 181.994C125.375 181.994 122.803 181.082 120.974 179.256C119.146 177.431 118.23 174.876 118.227 171.59ZM123.26 170.808C123.26 174.326 123.9 176.913 125.181 178.567C126.131 179.803 127.493 180.422 129.268 180.422C130.491 180.422 131.522 180.108 132.36 179.48C133.198 178.852 133.825 177.844 134.243 176.455C134.66 175.069 134.868 173.458 134.868 171.624C134.873 170.273 134.746 168.925 134.49 167.598C134.238 166.31 133.894 165.305 133.458 164.582C133.028 163.862 132.426 163.26 131.705 162.826C130.972 162.382 130.087 162.16 129.05 162.16C127.945 162.145 126.864 162.483 125.966 163.126C125.064 163.77 124.388 164.782 123.937 166.157C123.467 167.663 123.239 169.233 123.26 170.808Z" fill="white"/>
<path d="M143.129 162.047V160.973C146.411 161.081 148.35 161.134 148.945 161.134C149.576 161.134 150.489 161.118 151.681 161.084C152.875 161.052 153.754 161.034 154.318 161.032C155.763 161.032 156.889 161.218 157.696 161.585C158.505 161.958 159.183 162.57 159.634 163.339C160.125 164.147 160.38 165.076 160.368 166.022C160.37 166.859 160.191 167.687 159.846 168.45C159.52 169.199 159.044 169.872 158.449 170.431C158.07 170.788 157.465 171.175 156.631 171.59C157.289 172.722 158.255 174.323 159.526 176.391C160.456 177.908 161.062 178.818 161.347 179.117C161.612 179.401 161.923 179.636 162.268 179.813C162.77 180.045 163.69 180.267 165.025 180.48V181.554C163.377 181.448 162.035 181.393 160.999 181.393C159.905 181.393 158.56 181.448 156.96 181.554C155.776 178.837 154.26 175.729 152.412 172.228C151.854 172.209 151.273 172.17 150.666 172.112L150.724 178.145C150.744 178.89 150.807 179.351 150.915 179.53C151.016 179.705 151.174 179.842 151.365 179.915C151.5 179.982 152.368 180.171 153.968 180.48V181.554C151.707 181.448 149.891 181.393 148.519 181.393C147.171 181.393 145.376 181.448 143.131 181.554V180.48C144.773 180.18 145.697 179.948 145.905 179.784C146.113 179.62 146.245 179.298 146.302 178.818C146.331 178.557 146.35 176.077 146.36 171.378L146.347 167.057C146.347 165.028 146.313 163.804 146.244 163.387C146.203 163.12 146.06 162.876 145.844 162.712C145.635 162.564 144.95 162.387 143.785 162.184L143.129 162.047ZM150.679 170.473C151.165 170.492 151.524 170.502 151.758 170.502C153.12 170.502 154.125 170.18 154.771 169.535C155.418 168.891 155.742 167.912 155.741 166.598C155.741 165.361 155.434 164.418 154.821 163.764C154.208 163.112 153.378 162.785 152.328 162.785C151.897 162.785 151.342 162.818 150.665 162.886L150.679 170.473Z" fill="white"/>
<path d="M184.733 167.079H183.379C182.71 165.041 182.3 163.884 182.15 163.614C182.013 163.356 181.789 163.153 181.518 163.042C181.245 162.936 180.384 162.881 178.934 162.881H177.521V176.426C177.521 178.108 177.579 179.124 177.695 179.472C177.732 179.571 177.79 179.662 177.865 179.739C177.939 179.815 178.028 179.874 178.126 179.914C178.353 180.022 179.234 180.212 180.765 180.486V181.56C177.807 181.454 175.906 181.399 175.063 181.399C173.919 181.399 172.169 181.454 169.811 181.56V180.486C171.364 180.216 172.285 180.001 172.576 179.842C172.674 179.786 172.761 179.71 172.831 179.618C172.898 179.528 172.948 179.423 172.976 179.312C173.048 179.066 173.084 178.053 173.084 176.275V162.875H170.643C169.817 162.875 169.274 162.942 169.006 163.078C168.709 163.245 168.477 163.504 168.345 163.817C168.084 164.359 167.714 165.446 167.238 167.079H165.914C166.08 165.659 166.182 164.678 166.221 164.136C166.259 163.595 166.303 162.54 166.351 160.974C170.192 161.082 173.945 161.126 177.61 161.105C180.715 161.076 182.944 161.032 184.302 160.974C184.321 163.016 184.465 165.055 184.733 167.079Z" fill="white"/>
<path d="M187.263 162.047V160.973C189.619 161.081 191.606 161.134 193.227 161.134C193.857 161.134 194.89 161.115 196.326 161.076C197.003 161.057 197.629 161.047 198.202 161.047C200.258 161.047 201.742 161.353 202.654 161.962C203.855 162.754 204.457 163.92 204.457 165.456C204.473 166.08 204.359 166.698 204.123 167.274C203.888 167.849 203.536 168.371 203.089 168.806C202.41 169.492 201.373 170.054 199.976 170.489C201.217 170.585 202.217 170.806 202.973 171.147C203.709 171.474 204.326 172.019 204.741 172.708C205.175 173.45 205.394 174.299 205.373 175.157C205.375 176.304 205.033 177.426 204.391 178.378C203.736 179.373 202.754 180.142 201.446 180.683C200.136 181.224 198.453 181.493 196.399 181.488C195.844 181.488 195.144 181.473 194.298 181.444C193.213 181.396 192.471 181.372 192.073 181.372C191.335 181.372 189.731 181.43 187.258 181.546V180.472L189.682 179.95C189.861 179.903 190.027 179.813 190.166 179.689C190.282 179.567 190.368 179.417 190.414 179.254C190.492 178.955 190.537 178.109 190.55 176.716C190.576 174.28 190.589 172.012 190.589 169.916C190.589 168.746 190.56 166.909 190.502 164.405C190.481 163.659 190.393 163.161 190.24 162.91C190.127 162.756 189.969 162.64 189.789 162.577C189.705 162.546 188.863 162.369 187.263 162.047ZM194.869 169.98H195.597C197.187 169.98 198.342 169.647 199.06 168.978C199.779 168.312 200.137 167.324 200.136 166.02C200.136 164.889 199.837 164.031 199.241 163.443C198.645 162.857 197.774 162.562 196.631 162.559C196.042 162.569 195.453 162.617 194.869 162.704V169.98ZM194.869 171.487V179.7C195.46 179.812 196.06 179.87 196.66 179.874C197.987 179.874 198.989 179.52 199.663 178.808C200.337 178.098 200.675 176.998 200.675 175.51C200.675 173.982 200.291 172.93 199.526 172.355C198.76 171.782 197.455 171.494 195.611 171.492L194.869 171.487Z" fill="white"/>
<path d="M220.572 181.554V180.48C221.744 180.266 222.424 180.092 222.607 179.956C222.696 179.895 222.769 179.813 222.817 179.716C222.866 179.62 222.89 179.512 222.885 179.404C222.882 179.246 222.853 179.088 222.798 178.939C222.643 178.531 222.14 177.309 221.288 175.273C219.923 175.244 218.786 175.23 217.877 175.23C217.131 175.23 215.888 175.244 214.144 175.273C213.057 177.815 212.513 179.206 212.513 179.448C212.505 179.546 212.523 179.646 212.563 179.736C212.604 179.826 212.667 179.905 212.746 179.964C212.901 180.072 213.589 180.245 214.812 180.48V181.554C213.591 181.448 212.421 181.393 211.307 181.393C210.104 181.393 208.881 181.448 207.641 181.554V180.48C208.513 180.296 209.115 180.089 209.444 179.855C209.696 179.668 209.904 179.431 210.055 179.158C210.434 178.549 211.565 176.19 213.447 172.082C214.643 169.482 216.347 165.635 218.56 160.54H219.727C220.627 162.812 222.495 167.052 225.327 173.262C226.896 176.713 227.837 178.676 228.148 179.15C228.313 179.425 228.532 179.663 228.795 179.847C229.009 179.982 229.684 180.198 230.817 180.491V181.565C229.1 181.459 227.504 181.404 226.03 181.404C224.575 181.398 222.756 181.448 220.572 181.554ZM217.794 166.793L214.818 173.621L217.701 173.636C218.39 173.636 219.38 173.631 220.669 173.621L217.794 166.793Z" fill="white"/>
<path d="M232.876 162.047V160.973C234.747 161.081 236.596 161.134 238.418 161.134C240.281 161.134 242.104 161.081 243.888 160.973V162.047L241.465 162.53C241.206 162.604 240.978 162.762 240.818 162.979C240.693 163.173 240.63 163.608 240.63 164.281L240.601 170.883C243.528 168.033 245.628 165.832 246.901 164.281C247.501 163.546 247.803 163.063 247.803 162.831C247.803 162.67 247.701 162.543 247.496 162.456C247.409 162.417 246.794 162.282 245.651 162.05V160.976C247.504 161.084 249.003 161.137 250.146 161.137C251.29 161.137 252.7 161.084 254.379 160.976V162.047C252.972 162.25 252.045 162.466 251.593 162.691C251.141 162.918 250.437 163.509 249.475 164.463L244.467 169.563C245.222 170.521 246.341 171.871 247.828 173.611C249.069 175.053 250.096 176.288 250.911 177.315C251.727 178.344 252.432 179.042 253.027 179.409C253.624 179.778 254.684 180.135 256.206 180.483V181.557C254.335 181.451 252.44 181.396 250.519 181.396C248.58 181.396 246.719 181.451 244.933 181.557V180.483C245.814 180.386 246.38 180.256 246.633 180.092C246.706 180.045 246.765 179.981 246.806 179.905C246.846 179.829 246.867 179.744 246.865 179.657C246.865 179.502 246.696 179.208 246.356 178.773L240.597 171.267L240.612 172.268V176.826C240.612 178.259 240.655 179.129 240.743 179.438C240.772 179.539 240.822 179.634 240.889 179.715C240.957 179.797 241.041 179.863 241.135 179.91C241.351 180.032 242.073 180.188 243.302 180.382C243.43 180.401 243.619 180.435 243.87 180.483V181.557C242.018 181.451 240.349 181.396 238.862 181.396C237.61 181.396 235.608 181.451 232.854 181.557V180.483C234.512 180.203 235.476 179.961 235.747 179.758C235.933 179.623 236.041 179.377 236.071 179.019C236.12 178.526 236.144 175.761 236.144 170.724C236.144 166.469 236.121 164.123 236.078 163.683C236.034 163.244 235.931 162.955 235.763 162.82C235.526 162.606 234.563 162.348 232.876 162.047Z" fill="white"/>
<path d="M257.852 162.047V160.973C260.121 161.081 261.94 161.134 263.307 161.134C264.673 161.134 266.473 161.081 268.704 160.973V162.047C267.278 162.279 266.386 162.477 266.028 162.641C265.925 162.677 265.831 162.733 265.752 162.806C265.671 162.876 265.607 162.965 265.562 163.062C265.465 163.303 265.416 163.943 265.416 164.976V172.4C265.416 174.317 265.524 175.616 265.739 176.302C265.995 177.19 266.549 177.963 267.308 178.493C268.081 179.043 269.175 179.319 270.591 179.319C272.151 179.319 273.328 179.003 274.12 178.369C274.91 177.742 275.454 176.856 275.654 175.868C275.881 174.834 275.996 173.062 275.996 170.553C275.996 169.974 275.957 168.339 275.88 165.651C275.83 164.163 275.757 163.289 275.659 163.026C275.604 162.875 275.496 162.746 275.354 162.664C275.17 162.538 274.539 162.374 273.464 162.171C273.338 162.142 273.141 162.103 272.896 162.055V160.981C274.941 161.089 276.393 161.142 277.246 161.142C278.254 161.142 279.572 161.089 281.203 160.981V162.047C279.728 162.318 278.875 162.533 278.641 162.691C278.525 162.777 278.427 162.884 278.354 163.01C278.282 163.134 278.236 163.273 278.22 163.416C278.133 163.954 278.075 166.414 278.046 170.798C278.027 173.312 277.964 174.961 277.857 175.744C277.691 176.818 277.428 177.691 277.065 178.361C276.66 179.08 276.117 179.715 275.465 180.224C274.777 180.787 273.985 181.211 273.133 181.472C271.963 181.816 270.749 181.987 269.53 181.979C267.368 181.979 265.654 181.668 264.384 181.043C263.116 180.42 262.231 179.604 261.732 178.592C261.232 177.584 260.984 176.108 260.982 174.162V165.2C260.982 164.05 260.924 163.326 260.808 163.025C260.716 162.828 260.553 162.672 260.35 162.59C260.131 162.5 259.298 162.319 257.852 162.047Z" fill="white"/>
<path d="M37.2427 205.372H33.2413V204.89H34.4454L33.056 201.296H29.1842L27.7948 204.89H28.7026C28.7643 204.89 28.8261 204.896 28.8878 204.908C29.0854 204.945 29.1842 205.1 29.1842 205.372H25.8867V204.89H27.0538L31.2035 194.256H31.8889L36.1312 204.89H36.7611C36.8228 204.89 36.8846 204.896 36.9463 204.908C37.1439 204.945 37.2427 205.1 37.2427 205.372ZM32.8522 200.759L31.1109 196.276L29.388 200.759H32.8522Z" fill="white"/>
<path d="M41.9756 204.908C42.0373 204.908 42.0991 204.915 42.1608 204.927C42.3461 204.952 42.4387 205.1 42.4387 205.372H38.1779V204.908C38.5978 204.908 38.9004 204.884 39.0856 204.834C39.4685 204.711 39.6599 204.365 39.6599 203.797V197.961H38.1779V197.498H41.0493V204.908H41.9756ZM41.2716 194.794C41.2716 194.942 41.2407 195.084 41.179 195.22C41.0061 195.615 40.7035 195.812 40.2713 195.812C40.1354 195.812 39.9995 195.788 39.8637 195.738C39.4561 195.565 39.2524 195.251 39.2524 194.794C39.2524 194.645 39.2832 194.503 39.345 194.367C39.5302 193.972 39.839 193.775 40.2713 193.775C40.4071 193.775 40.5491 193.806 40.6973 193.867C41.0802 194.053 41.2716 194.361 41.2716 194.794Z" fill="white"/>
<path d="M48.0793 204.908C48.1534 204.908 48.2151 204.915 48.2645 204.927C48.4498 204.952 48.5424 205.1 48.5424 205.372H43.9667V204.908C44.3866 204.908 44.6892 204.877 44.8744 204.816C45.1955 204.705 45.3561 204.365 45.3561 203.797V197.961H43.9667V197.498H46.6528L46.7269 199.332C46.8875 198.962 47.1036 198.628 47.3753 198.332C47.9558 197.702 48.6165 197.387 49.3575 197.387C49.4687 197.387 49.586 197.399 49.7095 197.424C50.2776 197.548 50.5617 197.887 50.5617 198.443C50.5617 198.517 50.5493 198.591 50.5246 198.665C50.4258 199.023 50.1912 199.203 49.8207 199.203C49.7466 199.203 49.6725 199.19 49.5984 199.166C49.4255 199.116 49.2402 198.919 49.0426 198.573C48.8697 198.264 48.6783 198.11 48.4683 198.11C48.2831 198.122 48.0546 198.258 47.7829 198.517C47.0913 199.196 46.7455 200.098 46.7455 201.222V204.908H48.0793Z" fill="white"/>
<path d="M54.2942 208.428H55.5909C55.665 208.428 55.7268 208.434 55.7762 208.447C55.9614 208.471 56.0541 208.62 56.0541 208.891H51.5154V208.428C51.9353 208.428 52.2379 208.397 52.4231 208.336C52.7442 208.224 52.9048 207.885 52.9048 207.317V197.961H51.5154V197.498H54.183L54.2756 199.518C54.3744 199.246 54.4979 198.986 54.6462 198.739C55.239 197.788 56.1344 197.313 57.3323 197.313C58.1104 197.313 58.7711 197.56 59.3145 198.054C60.0926 198.783 60.4816 199.851 60.4816 201.259C60.4816 202.494 60.1235 203.513 59.4072 204.316C58.6661 205.143 57.7461 205.557 56.6469 205.557C55.7577 205.507 54.9734 205.186 54.2942 204.593V208.428ZM56.7395 198.054C56.2949 198.054 55.8873 198.19 55.5168 198.462C54.6894 199.079 54.2756 200.191 54.2756 201.796C54.2756 202.488 54.3683 203.087 54.5535 203.593C54.9117 204.593 55.5662 205.094 56.5172 205.094C56.8507 205.094 57.1594 205.026 57.4435 204.89C58.4191 204.408 58.907 203.26 58.907 201.444C58.907 200.938 58.8637 200.481 58.7773 200.073C58.4932 198.727 57.814 198.054 56.7395 198.054Z" fill="white"/>
<path d="M63.9177 201.426C63.9177 201.957 63.9609 202.438 64.0474 202.871C64.3685 204.353 65.1527 205.094 66.4001 205.094C66.6347 205.094 66.8632 205.063 67.0855 205.001C68.2217 204.643 68.7899 203.426 68.7899 201.352C68.7899 200.993 68.7713 200.666 68.7343 200.37C68.512 198.641 67.7154 197.776 66.3445 197.776C66.0481 197.776 65.7641 197.826 65.4923 197.924C64.4426 198.344 63.9177 199.511 63.9177 201.426ZM66.4001 197.313C67.2152 197.313 67.9624 197.529 68.6417 197.961C69.7902 198.715 70.3645 199.869 70.3645 201.426C70.3645 202.574 70.0063 203.531 69.29 204.297C68.512 205.137 67.5301 205.557 66.3445 205.557C65.5047 205.557 64.739 205.322 64.0474 204.853C62.9112 204.075 62.343 202.908 62.343 201.352C62.343 200.228 62.7074 199.289 63.436 198.536C64.2265 197.721 65.2145 197.313 66.4001 197.313Z" fill="white"/>
<path d="M76.1903 204.908C76.2644 204.908 76.3262 204.915 76.3756 204.927C76.5608 204.952 76.6535 205.1 76.6535 205.372H72.0777V204.908C72.4976 204.908 72.8002 204.877 72.9855 204.816C73.3066 204.705 73.4671 204.365 73.4671 203.797V197.961H72.0777V197.498H74.7639L74.838 199.332C74.9985 198.962 75.2147 198.628 75.4864 198.332C76.0668 197.702 76.7276 197.387 77.4686 197.387C77.5797 197.387 77.6971 197.399 77.8206 197.424C78.3887 197.548 78.6727 197.887 78.6727 198.443C78.6727 198.517 78.6604 198.591 78.6357 198.665C78.5369 199.023 78.3022 199.203 77.9317 199.203C77.8576 199.203 77.7835 199.19 77.7094 199.166C77.5365 199.116 77.3513 198.919 77.1537 198.573C76.9808 198.264 76.7893 198.11 76.5794 198.11C76.3941 198.122 76.1656 198.258 75.8939 198.517C75.2023 199.196 74.8565 200.098 74.8565 201.222V204.908H76.1903Z" fill="white"/>
<path d="M79.5153 197.961V197.498H80.812V195.738L82.2014 195.349V197.498H85.0729V197.961H82.2014V203.593C82.2138 204.519 82.5534 204.995 83.2203 205.02C83.8131 204.933 84.2639 204.377 84.5727 203.352L85.0729 203.445C85.0729 203.457 85.0729 203.47 85.0729 203.482C84.7888 204.877 84.0787 205.575 82.9424 205.575C81.6086 205.526 80.8985 204.729 80.812 203.186V197.961H79.5153Z" fill="white"/>
<path d="M89.9072 197.961V197.498H91.204V195.738L92.5934 195.349V197.498H95.4648V197.961H92.5934V203.593C92.6057 204.519 92.9454 204.995 93.6123 205.02C94.2051 204.933 94.6559 204.377 94.9646 203.352L95.4648 203.445C95.4648 203.457 95.4648 203.47 95.4648 203.482C95.1808 204.877 94.4706 205.575 93.3344 205.575C92.0006 205.526 91.2904 204.729 91.204 203.186V197.961H89.9072Z" fill="white"/>
<path d="M100.642 204.908C100.716 204.908 100.778 204.915 100.828 204.927C101.013 204.952 101.105 205.1 101.105 205.372H96.5297V204.908C96.9496 204.908 97.2521 204.877 97.4374 204.816C97.7585 204.705 97.9191 204.365 97.9191 203.797V197.961H96.5297V197.498H99.2158L99.2899 199.332C99.4505 198.962 99.6666 198.628 99.9383 198.332C100.519 197.702 101.18 197.387 101.921 197.387C102.032 197.387 102.149 197.399 102.272 197.424C102.841 197.548 103.125 197.887 103.125 198.443C103.125 198.517 103.112 198.591 103.088 198.665C102.989 199.023 102.754 199.203 102.384 199.203C102.31 199.203 102.235 199.19 102.161 199.166C101.988 199.116 101.803 198.919 101.606 198.573C101.433 198.264 101.241 198.11 101.031 198.11C100.846 198.122 100.618 198.258 100.346 198.517C99.6543 199.196 99.3084 200.098 99.3084 201.222V204.908H100.642Z" fill="white"/>
<path d="M110.84 205.557C109.976 205.544 109.469 204.989 109.321 203.889C109.21 204.149 109.043 204.396 108.821 204.63C108.203 205.248 107.444 205.557 106.542 205.557C106.172 205.557 105.82 205.489 105.486 205.353C104.659 205.007 104.245 204.365 104.245 203.426C104.245 203.155 104.282 202.901 104.356 202.667C104.776 201.456 106.437 200.851 109.34 200.851V199.684C109.302 198.486 108.703 197.85 107.543 197.776C107.049 197.776 106.684 197.931 106.45 198.239C106.388 198.326 106.271 198.597 106.098 199.054C105.962 199.413 105.752 199.592 105.468 199.592C105.406 199.592 105.344 199.585 105.282 199.573C104.924 199.511 104.745 199.289 104.745 198.906C104.745 198.696 104.819 198.486 104.968 198.276C105.437 197.634 106.363 197.313 107.746 197.313C107.858 197.313 107.969 197.313 108.08 197.313C109.846 197.412 110.729 198.344 110.729 200.11V204.019C110.741 204.637 110.908 204.958 111.229 204.982C111.624 204.97 111.865 204.513 111.952 203.612L112.433 203.63C112.433 203.692 112.427 203.76 112.415 203.834C112.316 204.982 111.791 205.557 110.84 205.557ZM107.154 204.816C107.425 204.816 107.703 204.754 107.987 204.63C108.703 204.285 109.154 203.686 109.34 202.834V201.352C108.376 201.364 107.641 201.426 107.135 201.537C106.184 201.759 105.709 202.284 105.709 203.111C105.709 203.321 105.727 203.513 105.764 203.686C105.937 204.439 106.4 204.816 107.154 204.816Z" fill="white"/>
<path d="M117.073 204.908C117.148 204.908 117.209 204.915 117.259 204.927C117.444 204.952 117.537 205.1 117.537 205.372H113.461V204.908C113.881 204.908 114.184 204.877 114.369 204.816C114.69 204.705 114.85 204.365 114.85 203.797V197.961H113.461V197.498H116.147L116.221 199.351C116.357 199.005 116.536 198.69 116.759 198.406C117.351 197.677 118.105 197.313 119.019 197.313C119.476 197.313 119.902 197.43 120.297 197.665C121.149 198.196 121.575 199.079 121.575 200.314V204.908H122.501C122.575 204.908 122.637 204.915 122.687 204.927C122.872 204.952 122.965 205.1 122.965 205.372H118.796V204.908C119.216 204.908 119.519 204.877 119.704 204.816C120.025 204.705 120.186 204.365 120.186 203.797V200.129C120.186 199.771 120.13 199.45 120.019 199.166C119.747 198.462 119.235 198.11 118.481 198.11C118.136 198.11 117.796 198.215 117.463 198.425C116.684 198.931 116.277 199.758 116.24 200.907V204.908H117.073Z" fill="white"/>
<path d="M127.327 205.057C128.179 205.057 128.753 204.797 129.05 204.279C129.161 204.093 129.216 203.889 129.216 203.667C129.216 203.148 128.84 202.704 128.086 202.333C127.926 202.247 127.66 202.123 127.29 201.963C126.277 201.543 125.604 201.148 125.271 200.777C124.912 200.37 124.733 199.894 124.733 199.351C124.733 198.499 125.203 197.9 126.141 197.554C126.574 197.393 127.043 197.313 127.549 197.313C128.364 197.313 129.068 197.486 129.661 197.832C129.661 197.474 129.748 197.27 129.92 197.22C129.995 197.208 130.075 197.202 130.161 197.202V199.518H129.68C129.655 198.381 129.025 197.807 127.79 197.795C126.864 197.795 126.289 198.066 126.067 198.61C126.005 198.758 125.975 198.912 125.975 199.073C125.975 199.604 126.357 200.055 127.123 200.425C127.296 200.512 127.568 200.629 127.938 200.777C128.939 201.185 129.605 201.574 129.939 201.944C130.297 202.34 130.476 202.809 130.476 203.352C130.476 204.353 129.945 205.02 128.883 205.353C128.475 205.489 128.031 205.557 127.549 205.557C126.66 205.544 125.888 205.322 125.234 204.89C125.234 205.211 125.153 205.396 124.993 205.446C124.919 205.458 124.832 205.464 124.733 205.464V202.648H125.252C125.277 204.241 125.968 205.044 127.327 205.057Z" fill="white"/>
<path d="M136.246 204.908C136.321 204.908 136.382 204.915 136.432 204.927C136.617 204.952 136.71 205.1 136.71 205.372H132.171V204.908C132.591 204.908 132.893 204.877 133.079 204.816C133.4 204.705 133.56 204.365 133.56 203.797V197.961H132.263V197.498H133.56V197.202C133.56 196.189 133.752 195.349 134.135 194.682C134.703 193.719 135.567 193.237 136.728 193.237C137.173 193.237 137.574 193.305 137.932 193.441C138.55 193.701 138.859 194.059 138.859 194.516C138.859 194.565 138.852 194.621 138.84 194.682C138.766 195.028 138.525 195.201 138.117 195.201C137.994 195.201 137.883 195.164 137.784 195.09C137.685 195.016 137.525 194.781 137.302 194.386C137.043 193.929 136.722 193.701 136.339 193.701C136.179 193.701 136.03 193.731 135.894 193.793C135.265 194.077 134.95 195.275 134.95 197.387V197.498H137.08V197.961H134.95V204.908H136.246Z" fill="white"/>
<path d="M142.22 197.776C141.899 197.776 141.597 197.85 141.313 197.998C140.448 198.431 139.985 199.357 139.923 200.777L141.887 200.833C142.455 200.845 142.894 200.82 143.202 200.759C143.795 200.623 144.092 200.246 144.092 199.629C144.092 199.357 144.042 199.104 143.943 198.869C143.659 198.14 143.085 197.776 142.22 197.776ZM145.444 203.593C145.37 203.766 145.283 203.939 145.185 204.112C144.555 205.075 143.573 205.557 142.239 205.557C141.399 205.557 140.652 205.341 139.997 204.908C138.898 204.167 138.349 203.031 138.349 201.5C138.349 200.66 138.522 199.907 138.867 199.24C139.534 197.955 140.64 197.313 142.183 197.313C142.974 197.313 143.672 197.492 144.277 197.85C145.129 198.344 145.555 199.011 145.555 199.851C145.555 200.308 145.388 200.66 145.055 200.907C144.623 201.216 143.653 201.358 142.146 201.333L139.923 201.296C139.936 201.815 139.991 202.29 140.09 202.722C140.424 204.266 141.239 205.038 142.535 205.038C142.647 205.038 142.764 205.032 142.887 205.02C143.851 204.896 144.548 204.365 144.981 203.426L145.444 203.593Z" fill="white"/>
<path d="M151.288 204.908C151.362 204.908 151.424 204.915 151.473 204.927C151.659 204.952 151.751 205.1 151.751 205.372H147.176V204.908C147.596 204.908 147.898 204.877 148.083 204.816C148.404 204.705 148.565 204.365 148.565 203.797V197.961H147.176V197.498H149.862L149.936 199.332C150.096 198.962 150.313 198.628 150.584 198.332C151.165 197.702 151.825 197.387 152.566 197.387C152.678 197.387 152.795 197.399 152.918 197.424C153.487 197.548 153.771 197.887 153.771 198.443C153.771 198.517 153.758 198.591 153.734 198.665C153.635 199.023 153.4 199.203 153.03 199.203C152.956 199.203 152.881 199.19 152.807 199.166C152.634 199.116 152.449 198.919 152.252 198.573C152.079 198.264 151.887 198.11 151.677 198.11C151.492 198.122 151.264 198.258 150.992 198.517C150.3 199.196 149.954 200.098 149.954 201.222V204.908H151.288Z" fill="white"/>
<path d="M157.762 205.057C158.615 205.057 159.189 204.797 159.485 204.279C159.596 204.093 159.652 203.889 159.652 203.667C159.652 203.148 159.275 202.704 158.522 202.333C158.361 202.247 158.096 202.123 157.725 201.963C156.713 201.543 156.04 201.148 155.706 200.777C155.348 200.37 155.169 199.894 155.169 199.351C155.169 198.499 155.638 197.9 156.577 197.554C157.009 197.393 157.478 197.313 157.985 197.313C158.8 197.313 159.504 197.486 160.097 197.832C160.097 197.474 160.183 197.27 160.356 197.22C160.43 197.208 160.51 197.202 160.597 197.202V199.518H160.115C160.09 198.381 159.461 197.807 158.226 197.795C157.299 197.795 156.725 198.066 156.503 198.61C156.441 198.758 156.41 198.912 156.41 199.073C156.41 199.604 156.793 200.055 157.559 200.425C157.732 200.512 158.003 200.629 158.374 200.777C159.374 201.185 160.041 201.574 160.375 201.944C160.733 202.34 160.912 202.809 160.912 203.352C160.912 204.353 160.381 205.02 159.319 205.353C158.911 205.489 158.466 205.557 157.985 205.557C157.096 205.544 156.324 205.322 155.669 204.89C155.669 205.211 155.589 205.396 155.428 205.446C155.354 205.458 155.268 205.464 155.169 205.464V202.648H155.688C155.712 204.241 156.404 205.044 157.762 205.057Z" fill="white"/>
<path d="M170.211 196.035C170.211 196.541 170.421 197.214 170.841 198.054C171.298 197.931 171.699 197.739 172.045 197.48C172.65 197.023 172.952 196.504 172.952 195.924C172.952 195.738 172.922 195.553 172.86 195.368C172.662 194.812 172.236 194.534 171.582 194.534C171.421 194.534 171.267 194.559 171.118 194.608C170.513 194.806 170.211 195.281 170.211 196.035ZM171.007 205.001C171.921 205.001 172.736 204.705 173.453 204.112C171.872 202.247 170.668 200.536 169.84 198.98C169.655 199.042 169.47 199.135 169.284 199.258C168.593 199.752 168.247 200.543 168.247 201.629C168.247 202.099 168.296 202.531 168.395 202.926C168.753 204.309 169.624 205.001 171.007 205.001ZM175.768 199.462C175.768 201.018 175.416 202.34 174.712 203.426C175.293 204.081 175.731 204.569 176.028 204.89H176.713C176.775 204.89 176.83 204.896 176.88 204.908C177.077 204.933 177.176 205.087 177.176 205.372H174.564C174.206 204.989 173.934 204.686 173.749 204.464C172.885 205.18 171.773 205.544 170.415 205.557C169.451 205.557 168.63 205.297 167.951 204.779C167.098 204.124 166.672 203.235 166.672 202.111C166.672 201.691 166.734 201.296 166.858 200.925C167.265 199.752 168.191 198.968 169.636 198.573C169.204 197.659 168.982 196.918 168.97 196.35C168.97 195.967 169.05 195.609 169.21 195.275C169.606 194.472 170.384 194.071 171.545 194.071C171.853 194.071 172.144 194.133 172.415 194.256C173.119 194.565 173.471 195.121 173.471 195.924C173.471 196.232 173.391 196.541 173.23 196.85C172.81 197.64 172.088 198.178 171.063 198.462C171.792 199.771 172.891 201.29 174.36 203.019C174.953 201.994 175.25 200.796 175.25 199.425H174.231V198.943H176.898C176.898 199.042 176.886 199.135 176.861 199.221C176.824 199.369 176.664 199.443 176.38 199.443L175.805 199.462H175.75H175.768Z" fill="white"/>
<path d="M188.42 205.372L188.272 203.408C187.667 204.816 186.691 205.532 185.345 205.557C184.691 205.557 184.092 205.365 183.548 204.982C182.585 204.279 182.103 203.161 182.103 201.629C182.103 200.703 182.313 199.869 182.733 199.128C183.425 197.918 184.45 197.313 185.808 197.313C186.833 197.313 187.648 197.646 188.254 198.313V193.793H186.494V193.33H189.643L189.68 204.908H190.606C190.68 204.908 190.742 204.915 190.792 204.927C190.977 204.952 191.069 205.1 191.069 205.372H188.42ZM183.678 201.407C183.678 201.988 183.74 202.506 183.863 202.963C184.172 204.198 184.833 204.816 185.845 204.816C186.352 204.816 186.803 204.637 187.198 204.279C187.939 203.612 188.309 202.537 188.309 201.055C188.309 200.351 188.204 199.74 187.994 199.221C187.611 198.258 186.969 197.776 186.068 197.776C185.71 197.776 185.382 197.856 185.086 198.017C184.147 198.536 183.678 199.666 183.678 201.407Z" fill="white"/>
<path d="M199.137 205.557C198.272 205.544 197.766 204.989 197.618 203.889C197.507 204.149 197.34 204.396 197.118 204.63C196.5 205.248 195.741 205.557 194.839 205.557C194.469 205.557 194.117 205.489 193.783 205.353C192.956 205.007 192.542 204.365 192.542 203.426C192.542 203.155 192.579 202.901 192.653 202.667C193.073 201.456 194.734 200.851 197.636 200.851V199.684C197.599 198.486 197 197.85 195.839 197.776C195.345 197.776 194.981 197.931 194.746 198.239C194.685 198.326 194.567 198.597 194.394 199.054C194.259 199.413 194.049 199.592 193.765 199.592C193.703 199.592 193.641 199.585 193.579 199.573C193.221 199.511 193.042 199.289 193.042 198.906C193.042 198.696 193.116 198.486 193.264 198.276C193.734 197.634 194.66 197.313 196.043 197.313C196.154 197.313 196.265 197.313 196.377 197.313C198.143 197.412 199.026 198.344 199.026 200.11V204.019C199.038 204.637 199.205 204.958 199.526 204.982C199.921 204.97 200.162 204.513 200.248 203.612L200.73 203.63C200.73 203.692 200.724 203.76 200.712 203.834C200.613 204.982 200.088 205.557 199.137 205.557ZM195.45 204.816C195.722 204.816 196 204.754 196.284 204.63C197 204.285 197.451 203.686 197.636 202.834V201.352C196.673 201.364 195.938 201.426 195.432 201.537C194.481 201.759 194.005 202.284 194.005 203.111C194.005 203.321 194.024 203.513 194.061 203.686C194.234 204.439 194.697 204.816 195.45 204.816Z" fill="white"/>
<path d="M203.11 208.317C203.283 208.317 203.456 208.28 203.629 208.206C204.234 207.947 204.882 207.002 205.574 205.372L202.24 197.98H201.332V197.498H204.944V197.98H203.703L206.241 203.908L208.612 197.98H207.26V197.498H210.076C210.076 197.609 210.063 197.702 210.039 197.776C210.002 197.912 209.86 197.98 209.613 197.98C209.501 197.98 209.403 197.992 209.316 198.017C209.168 198.066 209.032 198.264 208.909 198.61L206.167 205.372C205.895 206.038 205.611 206.613 205.315 207.094C204.598 208.292 203.752 208.891 202.777 208.891C202.505 208.891 202.246 208.842 201.999 208.743C201.455 208.533 201.184 208.194 201.184 207.724C201.184 207.687 201.19 207.644 201.202 207.595C201.264 207.249 201.492 207.076 201.888 207.076C202.036 207.076 202.165 207.113 202.277 207.187C202.4 207.273 202.53 207.502 202.666 207.872C202.764 208.169 202.913 208.317 203.11 208.317Z" fill="white"/>
<path d="M214.91 197.961V197.498H216.207V195.738L217.596 195.349V197.498H220.468V197.961H217.596V203.593C217.609 204.519 217.948 204.995 218.615 205.02C219.208 204.933 219.659 204.377 219.967 203.352L220.468 203.445C220.468 203.457 220.468 203.47 220.468 203.482C220.184 204.877 219.473 205.575 218.337 205.575C217.003 205.526 216.293 204.729 216.207 203.186V197.961H214.91Z" fill="white"/>
<path d="M223.255 201.426C223.255 201.957 223.299 202.438 223.385 202.871C223.706 204.353 224.49 205.094 225.738 205.094C225.972 205.094 226.201 205.063 226.423 205.001C227.559 204.643 228.128 203.426 228.128 201.352C228.128 200.993 228.109 200.666 228.072 200.37C227.85 198.641 227.053 197.776 225.682 197.776C225.386 197.776 225.102 197.826 224.83 197.924C223.78 198.344 223.255 199.511 223.255 201.426ZM225.738 197.313C226.553 197.313 227.3 197.529 227.979 197.961C229.128 198.715 229.702 199.869 229.702 201.426C229.702 202.574 229.344 203.531 228.628 204.297C227.85 205.137 226.868 205.557 225.682 205.557C224.842 205.557 224.077 205.322 223.385 204.853C222.249 204.075 221.681 202.908 221.681 201.352C221.681 200.228 222.045 199.289 222.774 198.536C223.564 197.721 224.552 197.313 225.738 197.313Z" fill="white"/>
<path d="M240.363 204.908C240.437 204.908 240.499 204.915 240.548 204.927C240.734 204.952 240.826 205.1 240.826 205.372H238.214L238.085 203.482C237.949 203.828 237.77 204.143 237.547 204.427C236.954 205.18 236.195 205.557 235.269 205.557C233.515 205.544 232.632 204.482 232.62 202.37V197.961H231.193V197.498H234.009V202.648C234.009 202.846 234.021 203.031 234.046 203.204C234.207 204.241 234.793 204.76 235.806 204.76C236.176 204.76 236.535 204.643 236.88 204.408C237.658 203.889 238.047 203.074 238.047 201.963V197.961H236.528V197.498H239.437V204.908H240.363Z" fill="white"/>
<path d="M246.411 204.908C246.485 204.908 246.547 204.915 246.597 204.927C246.782 204.952 246.874 205.1 246.874 205.372H242.299V204.908C242.719 204.908 243.021 204.877 243.206 204.816C243.527 204.705 243.688 204.365 243.688 203.797V197.961H242.299V197.498H244.985L245.059 199.332C245.219 198.962 245.436 198.628 245.707 198.332C246.288 197.702 246.948 197.387 247.689 197.387C247.801 197.387 247.918 197.399 248.041 197.424C248.61 197.548 248.894 197.887 248.894 198.443C248.894 198.517 248.881 198.591 248.857 198.665C248.758 199.023 248.523 199.203 248.153 199.203C248.079 199.203 248.004 199.19 247.93 199.166C247.757 199.116 247.572 198.919 247.375 198.573C247.202 198.264 247.01 198.11 246.8 198.11C246.615 198.122 246.387 198.258 246.115 198.517C245.423 199.196 245.077 200.098 245.077 201.222V204.908H246.411Z" fill="white"/>
<path d="M252.885 205.057C253.738 205.057 254.312 204.797 254.608 204.279C254.719 204.093 254.775 203.889 254.775 203.667C254.775 203.148 254.398 202.704 253.645 202.333C253.484 202.247 253.219 202.123 252.848 201.963C251.836 201.543 251.163 201.148 250.829 200.777C250.471 200.37 250.292 199.894 250.292 199.351C250.292 198.499 250.761 197.9 251.7 197.554C252.132 197.393 252.601 197.313 253.108 197.313C253.923 197.313 254.627 197.486 255.22 197.832C255.22 197.474 255.306 197.27 255.479 197.22C255.553 197.208 255.633 197.202 255.72 197.202V199.518H255.238C255.214 198.381 254.584 197.807 253.349 197.795C252.422 197.795 251.848 198.066 251.626 198.61C251.564 198.758 251.533 198.912 251.533 199.073C251.533 199.604 251.916 200.055 252.682 200.425C252.855 200.512 253.126 200.629 253.497 200.777C254.497 201.185 255.164 201.574 255.498 201.944C255.856 202.34 256.035 202.809 256.035 203.352C256.035 204.353 255.504 205.02 254.442 205.353C254.034 205.489 253.589 205.557 253.108 205.557C252.219 205.544 251.447 205.322 250.792 204.89C250.792 205.211 250.712 205.396 250.551 205.446C250.477 205.458 250.391 205.464 250.292 205.464V202.648H250.811C250.835 204.241 251.527 205.044 252.885 205.057Z" fill="white"/>
</g>
<defs>
<clipPath id="clip0_325_1772">
<rect width="281.303" height="210.655" fill="white" transform="translate(0 0.30957)"/>
</clipPath>
</defs>
</svg>
