<svg width="192" height="192" viewBox="0 0 192 192" fill="none" xmlns="http://www.w3.org/2000/svg">
<rect x="0.167969" y="0.654785" width="191" height="191" rx="95.5" fill="#EDEDED"/>
<path d="M104.71 52.0808C104.244 51.8016 103.711 51.6542 103.168 51.6542C102.625 51.6542 102.092 51.8016 101.626 52.0808L60.988 76.4588C60.084 77.0028 59.274 77.6428 58.558 78.3788L103.168 105.163L147.778 78.3968C147.053 77.6499 146.234 77.0004 145.342 76.4648L104.71 52.0808ZM150.748 83.6048L104.71 111.229C104.244 111.508 103.711 111.655 103.168 111.655C102.625 111.655 102.092 111.508 101.626 111.229L55.588 83.5928C55.308 84.6208 55.168 85.6748 55.168 86.7548V126.655C55.168 130.633 56.7483 134.448 59.5614 137.261C62.3744 140.074 66.1897 141.655 70.168 141.655H136.168C140.146 141.655 143.962 140.074 146.775 137.261C149.588 134.448 151.168 130.633 151.168 126.655V86.7548C151.168 85.6748 151.028 84.6248 150.748 83.6048Z" fill="#C7CCD2"/>
<path d="M89.9455 38.3548C89.3992 38.0607 88.7884 37.9067 88.168 37.9067C87.5475 37.9067 86.9368 38.0607 86.3905 38.3548L41.5855 62.4823C39.7975 63.4448 38.3033 64.8733 37.2615 66.6162C36.2197 68.3592 35.669 70.3517 35.668 72.3823V116.655C35.668 120.633 37.2483 124.448 40.0614 127.261C42.8744 130.074 46.6897 131.655 50.668 131.655H125.668C129.646 131.655 133.462 130.074 136.275 127.261C139.088 124.448 140.668 120.633 140.668 116.655V72.3823C140.667 70.3517 140.116 68.3592 139.074 66.6162C138.033 64.8733 136.538 63.4448 134.75 62.4823L89.9455 38.3548ZM45.1405 69.0823L88.168 45.9073L131.195 69.0823C131.653 69.3295 132.054 69.6692 132.373 70.0798L88.168 93.6523L43.963 70.0798C44.2821 69.6692 44.6831 69.3295 45.1405 69.0823ZM43.168 78.1573L86.4055 101.205C86.948 101.494 87.5533 101.645 88.168 101.645C88.7826 101.645 89.3879 101.494 89.9305 101.205L133.168 78.1573V116.655C133.168 118.644 132.378 120.552 130.971 121.958C129.565 123.365 127.657 124.155 125.668 124.155H50.668C48.6788 124.155 46.7712 123.365 45.3647 121.958C43.9581 120.552 43.168 118.644 43.168 116.655V78.1573Z" fill="#2B4764"/>
</svg>
