<svg width="192" height="192" viewBox="0 0 192 192" fill="none" xmlns="http://www.w3.org/2000/svg">
<rect x="0.833984" y="0.654785" width="191" height="191" rx="95.5" fill="#EDEDED"/>
<path opacity="0.2" d="M110.968 106.799L114.46 103.307C116.131 101.635 118.116 100.309 120.3 99.4041C122.484 98.4993 124.825 98.0337 127.189 98.0337C129.553 98.0337 131.894 98.4993 134.078 99.4041C136.262 100.309 138.246 101.635 139.918 103.307L148.402 111.797C151.776 115.172 153.672 119.75 153.672 124.523C153.672 129.296 151.776 133.873 148.402 137.249L131.566 154.085C130.747 154.904 129.708 155.468 128.575 155.71C127.442 155.952 126.264 155.86 125.182 155.447C86.2418 140.579 59.5778 113.735 45.3338 75.5748C44.9314 74.4967 44.8476 73.3256 45.0923 72.2011C45.337 71.0766 45.8998 70.0463 46.7138 69.2328L63.5498 52.3968C66.9253 49.0223 71.5029 47.1266 76.2758 47.1266C81.0488 47.1266 85.6263 49.0223 89.0018 52.3968L97.4858 60.8808C99.1576 62.5523 100.484 64.5367 101.389 66.7208C102.293 68.9049 102.759 71.2458 102.759 73.6098C102.759 75.9739 102.293 78.3148 101.389 80.4988C100.484 82.6829 99.1576 84.6673 97.4858 86.3388L94.0058 89.8188C99.2884 95.8381 104.954 101.51 110.968 106.799Z" fill="#2B4764"/>
<path fill-rule="evenodd" clip-rule="evenodd" d="M113.577 93.4308L108.117 98.8968C100.502 92.3871 93.4084 85.2915 86.9009 77.6748L92.3609 72.2148C95.173 69.4019 96.7527 65.5872 96.7527 61.6098C96.7527 57.6323 95.173 53.8177 92.3609 51.0048L83.8829 42.5148C82.49 41.1215 80.8362 40.0162 79.0161 39.2622C77.1959 38.5081 75.2451 38.12 73.2749 38.12C71.3047 38.12 69.3539 38.5081 67.5337 39.2622C65.7136 40.0162 64.0598 41.1215 62.6669 42.5148L45.8309 59.3508C45.4244 59.7584 45.1437 60.2745 45.0224 60.8373C44.9011 61.4001 44.9443 61.9859 45.1469 62.5248C59.0909 99.8808 85.1129 126.083 123.255 140.645C123.795 140.85 124.384 140.894 124.949 140.773C125.514 140.652 126.032 140.37 126.441 139.961L143.277 123.131C144.67 121.738 145.775 120.084 146.53 118.264C147.284 116.444 147.672 114.493 147.672 112.523C147.672 110.553 147.284 108.602 146.53 106.782C145.775 104.961 144.67 103.308 143.277 101.915L134.793 93.4308C133.4 92.0375 131.746 90.9322 129.926 90.1782C128.106 89.4241 126.155 89.036 124.185 89.036C122.215 89.036 120.264 89.4241 118.444 90.1782C116.624 90.9322 114.97 92.0375 113.577 93.4308ZM139.035 106.157C139.871 106.993 140.535 107.985 140.987 109.077C141.44 110.17 141.673 111.34 141.673 112.523C141.673 113.705 141.44 114.876 140.987 115.968C140.535 117.061 139.871 118.053 139.035 118.889L123.585 134.339C88.6589 120.503 64.7189 96.4188 51.4469 62.2188L66.9089 46.7628C67.7447 45.9265 68.7371 45.263 69.8294 44.8103C70.9217 44.3577 72.0925 44.1247 73.2749 44.1247C74.4573 44.1247 75.6281 44.3577 76.7204 44.8103C77.8127 45.263 78.8051 45.9265 79.6409 46.7628L88.1249 55.2468C89.8122 56.9345 90.76 59.2233 90.76 61.6098C90.76 63.9963 89.8122 66.285 88.1249 67.9728L80.7209 75.3768C80.1914 75.9048 79.8782 76.6116 79.8426 77.3586C79.8071 78.1056 80.0519 78.8389 80.5289 79.4148C88.3193 88.8203 96.9708 97.4779 106.371 105.275C106.946 105.753 107.679 105.998 108.426 105.964C109.173 105.93 109.88 105.617 110.409 105.089L117.825 97.6728C119.512 95.9874 121.8 95.0407 124.185 95.0407C126.57 95.0407 128.857 95.9874 130.545 97.6728L139.035 106.157Z" fill="#2B4764"/>
</svg>
