<svg width="192" height="192" viewBox="0 0 192 192" fill="none" xmlns="http://www.w3.org/2000/svg">
<rect x="0.5" y="0.654785" width="191" height="191" rx="95.5" fill="#EDEDED"/>
<path opacity="0.2" fill-rule="evenodd" clip-rule="evenodd" d="M130.14 93.3588C132.766 94.2894 135.141 95.8169 137.076 97.8212C139.012 99.8254 140.456 102.252 141.294 104.909L149.1 129.209C152.172 138.773 147.12 149.081 137.826 152.237C136.034 152.843 134.156 153.153 132.264 153.155H83.724C73.944 153.155 66 144.995 66 134.927C66 132.989 66.3 131.057 66.9 129.215L74.7 104.915C75.5382 102.256 76.9826 99.8281 78.9193 97.8227C80.8559 95.8173 83.232 94.2892 85.86 93.3588C84.696 89.5608 84 85.9368 84 82.8708C84 68.6688 94.74 57.1548 108 57.1548C121.26 57.1548 132 68.6688 132 82.8708C132 85.9368 131.31 89.5608 130.14 93.3588Z" fill="#2B4764"/>
<path fill-rule="evenodd" clip-rule="evenodd" d="M96 87.1548C99.1826 87.1548 102.235 85.8905 104.485 83.6401C106.736 81.3896 108 78.3374 108 75.1548C108 71.9722 106.736 68.9199 104.485 66.6695C102.235 64.4191 99.1826 63.1548 96 63.1548C92.8174 63.1548 89.7652 64.4191 87.5147 66.6695C85.2643 68.9199 84 71.9722 84 75.1548C84 78.3374 85.2643 81.3896 87.5147 83.6401C89.7652 85.8905 92.8174 87.1548 96 87.1548ZM96 69.1548C97.5913 69.1548 99.1174 69.7869 100.243 70.9121C101.368 72.0374 102 73.5635 102 75.1548C102 76.7461 101.368 78.2722 100.243 79.3974C99.1174 80.5226 97.5913 81.1548 96 81.1548C94.4087 81.1548 92.8826 80.5226 91.7574 79.3974C90.6321 78.2722 90 76.7461 90 75.1548C90 73.5635 90.6321 72.0374 91.7574 70.9121C92.8826 69.7869 94.4087 69.1548 96 69.1548Z" fill="#2B4764"/>
<path fill-rule="evenodd" clip-rule="evenodd" d="M69 73.8708C69 89.9088 84.918 117.155 96 117.155C107.088 117.155 123 89.9088 123 73.8708C123 58.0548 110.958 45.1548 96 45.1548C81.042 45.1548 69 58.0548 69 73.8708ZM117 73.8708C117 87.0288 102.912 111.155 96 111.155C89.094 111.155 75 87.0348 75 73.8708C75 61.2768 84.45 51.1548 96 51.1548C107.55 51.1548 117 61.2768 117 73.8708Z" fill="#2B4764"/>
<path d="M116.611 90.9948C115.893 90.6861 115.325 90.1098 115.025 89.3885C114.726 88.6671 114.72 87.8574 115.008 87.1316C115.297 86.4058 115.857 85.821 116.569 85.5016C117.282 85.1821 118.091 85.1531 118.825 85.4208C121.265 86.3885 123.463 87.8781 125.267 89.7852C127.07 91.6923 128.435 93.9707 129.265 96.4608L137.269 120.461C138.171 123.168 138.417 126.05 137.987 128.871C137.556 131.692 136.461 134.369 134.792 136.684C133.123 138.998 130.928 140.882 128.387 142.181C125.847 143.48 123.034 144.157 120.181 144.155H71.8206C68.9683 144.155 66.1568 143.477 63.6178 142.177C61.0789 140.877 58.8851 138.993 57.2175 136.679C55.5498 134.365 54.4559 131.688 54.026 128.868C53.596 126.048 53.8424 123.167 54.7446 120.461L62.7426 96.4608C63.5872 93.9261 64.9853 91.6111 66.8357 89.6839C68.6861 87.7567 70.9423 86.2656 73.4406 85.3188C73.809 85.1789 74.2013 85.113 74.5951 85.1247C74.989 85.1365 75.3767 85.2257 75.736 85.3873C76.0954 85.5489 76.4194 85.7796 76.6896 86.0664C76.9598 86.3532 77.1708 86.6904 77.3107 87.0588C77.4505 87.4271 77.5164 87.8194 77.5047 88.2133C77.4929 88.6071 77.4037 88.9948 77.2422 89.3542C77.0806 89.7135 76.8498 90.0375 76.563 90.3077C76.2762 90.5779 75.939 90.7889 75.5706 90.9288C73.903 91.5596 72.3969 92.5542 71.1618 93.8401C69.9267 95.1261 68.9937 96.6711 68.4307 98.3628L60.4326 122.363C59.8318 124.167 59.6682 126.088 59.9554 127.967C60.2426 129.847 60.9724 131.631 62.0845 133.174C63.1967 134.716 64.6594 135.972 66.3522 136.838C68.0449 137.704 69.9192 138.155 71.8206 138.155H120.193C122.094 138.155 123.969 137.702 125.661 136.836C127.354 135.969 128.816 134.712 129.928 133.169C131.039 131.627 131.768 129.842 132.055 127.962C132.341 126.082 132.177 124.161 131.575 122.357L123.583 98.3568C123.029 96.6975 122.119 95.1793 120.917 93.9086C119.714 92.638 118.249 91.6455 116.623 91.0008" fill="#2B4764"/>
</svg>
